<svg xmlns="http://www.w3.org/2000/svg" viewBox="0 0 148.34 79.51"><defs><style>.cls-1{fill:gray;}.cls-2{fill:none;}</style></defs><title>genevalive</title><g id="Layer_2" data-name="Layer 2"><g id="Layer_1-2" data-name="Layer 1"><g id="Layer_1-2-2" data-name="Layer 1-2"><g id="Layer_2-2" data-name="Layer 2-2"><g id="Layer_1-2-2-2" data-name="Layer 1-2-2"><polygon class="cls-1" points="77.47 35.94 74.7 42.13 71.91 35.94 68.76 35.94 74.7 48.48 80.63 35.94 77.47 35.94"/><path class="cls-1" d="M31.09,43.46h3v1.68a4,4,0,0,1-2.43.61,3.63,3.63,0,1,1-.36-7.26,2.16,2.16,0,0,1,.36,0,3.41,3.41,0,0,1,2.89,1.42l2.17-1.78A6.37,6.37,0,1,0,31.7,48.42h0a6.71,6.71,0,0,0,5.18-2V40.79h-4.5Z"/><polygon class="cls-1" points="41.33 40.78 41.33 38.69 46.29 38.69 46.29 35.94 38.49 35.94 38.49 48.29 46.29 48.29 46.29 45.54 41.33 45.54 41.33 43.46 45.07 43.46 45.07 40.78 41.33 40.78"/><polygon class="cls-1" points="55.78 42.4 47.84 35.81 47.84 48.29 50.67 48.29 50.67 41.84 58.62 48.43 58.62 35.94 55.78 35.94 55.78 42.4"/><polygon class="cls-1" points="63.26 40.78 63.26 38.69 68.22 38.69 68.22 35.94 60.42 35.94 60.42 48.29 68.22 48.29 68.22 45.54 63.26 45.54 63.26 43.46 66.87 43.46 66.87 40.78 63.26 40.78"/><polygon class="cls-1" points="93.07 35.94 91.03 35.94 91.03 48.27 98.33 48.27 98.33 46.28 93.07 46.28 93.07 35.94"/><rect class="cls-1" x="99.66" y="35.94" width="2.04" height="12.32"/><polygon class="cls-1" points="108.71 43.83 105.17 35.94 102.92 35.94 108.71 48.41 114.61 35.94 112.26 35.94 108.71 43.83"/><polygon class="cls-1" points="117.72 41.05 117.72 37.93 123.09 37.93 123.09 35.94 115.68 35.94 115.63 48.29 123.02 48.29 123.09 46.29 117.72 46.29 117.72 42.99 122 42.99 122 41.05 117.72 41.05"/><polygon class="cls-1" points="86.07 41.34 84.83 43.97 85.59 45.27 84.21 45.27 83.28 47.23 86.78 47.23 87.36 48.29 90.15 48.29 86.07 41.34"/><path class="cls-1" d="M89.31,30.29,85,39.46l-2.13-3.65-5.9,12.42h2.57L80,47.17h1.29l-3.93,8.29H78L90,30.26ZM81,45.27,83,40.91l.71,1.17-1.51,3.21Z"/><path class="cls-1" d="M25.26,28.38l.47-.32a.88.88,0,0,0,.78.48c.33,0,.64-.17.64-.44s-.18-.41-.6-.56l-.27-.1a1.1,1.1,0,0,1-.84-1,1,1,0,0,1,1.06-.93h0a1.12,1.12,0,0,1,1.05.65l-.47.27A.64.64,0,0,0,26.5,26c-.27,0-.5.14-.5.39s.11.38.52.53l.29.11c.59.21.89.53.89,1.05a1.11,1.11,0,0,1-1.21,1h0A1.37,1.37,0,0,1,25.26,28.38Z"/><path class="cls-1" d="M30.68,28.61a1.4,1.4,0,0,1-2.42-.76h0V25.51h.58v2.1a.89.89,0,0,0,.79.88h.09a.88.88,0,0,0,.95-.7V25.51h.6V29h-.6Z"/><path class="cls-1" d="M32.23,25.51h.58v.35a1.63,1.63,0,0,1,1.11-.41,1.81,1.81,0,1,1,0,3.62,1.58,1.58,0,0,1-1.11-.41v1.63h-.6Zm.58,1.1v1.33a1.28,1.28,0,0,0,1.1.57,1.24,1.24,0,1,0,0-2.48A1.26,1.26,0,0,0,32.81,26.61Z"/><path class="cls-1" d="M36.42,25.51H37v.35a1.6,1.6,0,0,1,1.1-.41,1.81,1.81,0,0,1,0,3.62,1.6,1.6,0,0,1-1.1-.41v1.63h-.61Zm.61,1.1v1.33a1.27,1.27,0,0,0,1.1.57,1.24,1.24,0,0,0,0-2.48A1.27,1.27,0,0,0,37,26.61Z"/><path class="cls-1" d="M40.4,27.26a1.76,1.76,0,0,1,1.71-1.83h.06a1.82,1.82,0,1,1,0,3.63h0a1.78,1.78,0,0,1-1.83-1.72h0Zm3,0a1.18,1.18,0,0,0-1.22-1.15h0a1.19,1.19,0,0,0-1.06,1.32,1.18,1.18,0,0,0,1.11,1.06,1.17,1.17,0,0,0,1.17-1.17v-.06Z"/><path class="cls-1" d="M44.72,25.51h.61v.4a1.16,1.16,0,0,1,1-.44h.25v.64a1.86,1.86,0,0,0-.34-.05.9.9,0,0,0-.88.55V29h-.61Z"/><path class="cls-1" d="M46.82,25.51h.69v-.75l.6-.3v1.05h1.06l-.14.55h-.94v1.85c0,.35.15.56.53.56h.47V29h-.54a.93.93,0,0,1-1-.8V26.07h-.56Z"/><path class="cls-1" d="M49.54,27.26a1.77,1.77,0,0,1,1.71-1.77h0A1.73,1.73,0,0,1,53,27.21c0,.06,0,.13,0,.2H50.16a1.15,1.15,0,0,0,1.14,1.12,1.44,1.44,0,0,0,1-.45l.39.41a1.91,1.91,0,0,1-1.41.57,1.77,1.77,0,0,1-1.77-1.77Zm.64-.38h2.14A1,1,0,0,0,51.26,26a1.1,1.1,0,0,0-1.06.89Z"/><path class="cls-1" d="M53.67,25.51h.61v.4a1.16,1.16,0,0,1,1-.44h.24v.64a1.88,1.88,0,0,0-.33-.05.9.9,0,0,0-.88.55V29h-.61Z"/><path class="cls-1" d="M57.15,27.26a1.78,1.78,0,0,1,3.55,0A1.79,1.79,0,0,1,59,29h0a1.79,1.79,0,0,1-1.78-1.73Zm3,0A1.2,1.2,0,1,0,59,28.49a1.16,1.16,0,0,0,1.18-1.15h0Z"/><path class="cls-1" d="M61.1,25.51h.59A.9.9,0,0,1,62.32,24h1v.55h-.75c-.3,0-.53.14-.53.44a.49.49,0,0,0,.49.48h.77V26h-1v3h-.6V26h-.61Z"/></g></g><rect class="cls-2" width="148.34" height="79.51"/></g></g></g></svg>