<svg xmlns="http://www.w3.org/2000/svg" viewBox="0 0 148.34 79.51"><defs><style>.cls-1{fill:none;}.cls-2{fill:gray;}</style></defs><title>samsung</title><g id="Layer_2" data-name="Layer 2"><g id="Layer_1-2" data-name="Layer 1"><g id="Layer_1-2-2" data-name="Layer 1-2"><rect class="cls-1" width="148.34" height="79.51"/><path class="cls-2" d="M108.25,43V36.3c.27-2.26,2.11-3,4.26-3s4,.72,4.24,3v1.2h-3V36.36a1.27,1.27,0,0,0-2.41,0,2.24,2.24,0,0,0-.05.58v5.53a3.53,3.53,0,0,0,0,.46,1.34,1.34,0,0,0,2.52,0,3.53,3.53,0,0,0,0-.46V40.68h-1.24V38.91h4.3v3.25a5.45,5.45,0,0,1,0,.8,2.88,2.88,0,0,1-1.37,2.29c11.37-5.1,18.08-10.79,17.23-15.67-1.59-9.18-29.06-12-61.34-6.37A171.48,171.48,0,0,0,34.93,33.39a7.23,7.23,0,0,1,1.58-.16c1.72,0,4.08.38,4.08,3v.89h-3v-.75a1.08,1.08,0,0,0-1.13-1.1,1,1,0,0,0-1.1.81,1.38,1.38,0,0,0,0,.64c.34,1.42,4.94,2.17,5.45,4.71a6,6,0,0,1,0,2c-.28,2-1.92,2.74-4.24,2.74s-4.43-.88-4.43-3.54v-.89h3.22v1.16a.81.81,0,0,0,0,.16,1.07,1.07,0,0,0,1.21.93,1,1,0,0,0,1.18-.8,1.5,1.5,0,0,0,0-.89c-.63-1.54-4.94-2.29-5.47-4.81a4.47,4.47,0,0,1,0-1.63,2.75,2.75,0,0,1,1.1-1.83C21.75,39.21,14.84,45,15.71,49.93c1.59,9.14,29.06,12,61.35,6.38,14.55-2.54,27.59-6.36,37.38-10.64a6.3,6.3,0,0,1-1.93.28C110.37,46,108.46,45.16,108.25,43Zm-58.8,2.78-1.6-11h-.08l-1.65,11H42.84l2.25-12.1h5.38l2.24,12.1Zm16.11,0-.08-10.88h-.07l-2,10.88H60.32l-2-10.88h-.06l-.08,10.88h-3l.26-12.1h4.94l1.49,9.25h.06l1.5-9.25h4.94l.26,12.1Zm14.58-2.28c-.32,2-2,2.66-4.24,2.66s-4.36-.82-4.36-3.48v-.89h3.24v1.16a.71.71,0,0,0,0,.15A1.08,1.08,0,0,0,76,44a1.06,1.06,0,0,0,1.17-.81,1.68,1.68,0,0,0,0-.89c-.67-1.51-4.93-2.26-5.46-4.68a4.36,4.36,0,0,1,0-1.61c.32-2,2.06-2.66,4.19-2.66,1.7,0,4,.4,4,3v.86h-3v-.74a.43.43,0,0,0,0-.16,1,1,0,0,0-1.11-.93,1,1,0,0,0-1.1.81,1.67,1.67,0,0,0,0,.63c.35,1.4,4.89,2.16,5.41,4.67A6.44,6.44,0,0,1,80.14,43.46Zm11.35-1.15v.8c-.22,2.26-2,3-4.22,3s-4-.73-4.23-3V33.63H86.1v8.94a1.77,1.77,0,0,0,0,.46,1.21,1.21,0,0,0,2.33,0,3.53,3.53,0,0,0,0-.46V33.63h3.06Zm13.58,3.3h-4.31l-3-9.83h-.07l.16,9.83h-3v-12H99.4l2.77,9.5h.07l-.16-9.5h3Z"/><path class="cls-2" d="M33.38,34.06l1.55-.67A4,4,0,0,0,33.38,34.06Z"/><path class="cls-2" d="M114.44,45.67a3.63,3.63,0,0,0,1-.42Z"/></g></g></g></svg>