<svg xmlns="http://www.w3.org/2000/svg" viewBox="0 0 148.34 79.51"><defs><style>.cls-1{fill:gray;}.cls-2{fill:none;}</style></defs><title>steltix</title><g id="Layer_2" data-name="Layer 2"><g id="Layer_1-2" data-name="Layer 1"><g id="Layer_1-2-2" data-name="Layer 1-2"><path class="cls-1" d="M106.08,45l.16.16,1.07,1.25,1.2,1.43c.52.62,1,1.24,1.57,1.85a1.7,1.7,0,0,0,1,.56,2.08,2.08,0,0,0,1.05-.06,1.89,1.89,0,0,0,1.28-1.7,1.69,1.69,0,0,0-.26-1.09c-.15-.22-.31-.43-.48-.64l-1-1.19-1.53-1.78-1.34-1.6c-.15-.19-.16-.18,0-.36l.06-.08,1.32-1.57c.39-.46.78-.88,1.17-1.39s1-1.21,1.51-1.77a2.38,2.38,0,0,0,.5-.89,2,2,0,0,0-.06-1.2,1.89,1.89,0,0,0-1.78-1.21,1.54,1.54,0,0,0-.64.1,1.9,1.9,0,0,0-1,.66L108.65,36l-.83,1-.77.89-.83,1c-.12.15-.16.15-.28,0l-1.18-1.4c-.68-.8-1.35-1.63-2.05-2.44-.25-.3-.51-.6-.79-.88a1.78,1.78,0,0,0-1.2-.46,2.2,2.2,0,0,0-.72.15,1.84,1.84,0,0,0-1.19,1.51,2.39,2.39,0,0,0,.06.84,2.08,2.08,0,0,0,.45.79c.32.36.63.72.94,1.1l2.06,2.48,1.15,1.35c.1.11.1.12,0,.23l-.41.47-2.23,2.66-1.64,1.95a1.65,1.65,0,0,0-.35.7,2.07,2.07,0,0,0,.08,1.23,1.79,1.79,0,0,0,1.36,1.15,2.81,2.81,0,0,0,.71,0,1.8,1.8,0,0,0,1.1-.56l.44-.52,2.22-2.66L106,45.07ZM35.92,40.51h0c.17.15.35.32.54.46a7.1,7.1,0,0,0,1.28.74l2,1,1.78.88.75.37,2.15,1a1.59,1.59,0,0,1,.56.41c0,.07.12.16.11.24a.72.72,0,0,1-.33.61,1.11,1.11,0,0,1-.57.16H36.87a2,2,0,0,0-.55.08,2,2,0,0,0-1,.71,1.91,1.91,0,0,0,1.41,3h5.88a16.52,16.52,0,0,0,2,0h.54a10.3,10.3,0,0,0,1.06-.27,4.2,4.2,0,0,0,1.08-.54,3.77,3.77,0,0,0,1.42-1.87A3.44,3.44,0,0,0,49,46.42a7.4,7.4,0,0,0,0-1.63,4.66,4.66,0,0,0-.34-1.14,3.9,3.9,0,0,0-1.09-1.39,6.78,6.78,0,0,0-1.41-.85l-1.68-.79a1.13,1.13,0,0,0-.48-.11Zm51.71-11.3c-.27.06-.51.07-.74.14s-.46.17-.68.27A4.09,4.09,0,0,0,84.52,31a3.91,3.91,0,0,0-.6,1.35,4.72,4.72,0,0,1-.08.63,2.92,2.92,0,0,0,0,.51V45a11,11,0,0,0,0,1.52c0,.29.1.59.17.88a3.61,3.61,0,0,0,.6,1.17,4.27,4.27,0,0,0,2.53,1.64,1,1,0,0,0,.48,0V37.91c0-.22,0-.23.24-.23A3.84,3.84,0,0,0,89,37.61l.39-.12A1.78,1.78,0,0,0,90.46,36a1.87,1.87,0,0,0-.25-1.22,1.83,1.83,0,0,0-1.13-.89,4,4,0,0,0-.77-.09h-.67V31.48C87.64,30.73,87.63,30,87.63,29.21ZM80,39.77h0V31.23a2.27,2.27,0,0,0-.13-.77A1.87,1.87,0,0,0,78,29.27a2,2,0,0,0-.75.13,1.89,1.89,0,0,0-.82.63,1.64,1.64,0,0,0-.35,1V48.4a1.59,1.59,0,0,0,.1.68,1.87,1.87,0,0,0,2.27,1.18A1.81,1.81,0,0,0,80,48.36V39.77Zm12.48,2.12h0v6.35a2.16,2.16,0,0,0,.07.76,1.83,1.83,0,0,0,1.09,1.15,1.94,1.94,0,0,0,1.26.07A1.85,1.85,0,0,0,96,49.34a1.68,1.68,0,0,0,.26-.89v-13a1.8,1.8,0,0,0-.31-1,1.94,1.94,0,0,0-1.3-.89,2.06,2.06,0,0,0-.89,0,1.62,1.62,0,0,0-.68.37,1.72,1.72,0,0,0-.67,1.37v.38C92.44,37.87,92.44,39.91,92.44,41.89ZM35,37.68H46.9a3.22,3.22,0,0,0,.75-.1,1.79,1.79,0,0,0,1-.67A2,2,0,0,0,49,35.77a1.83,1.83,0,0,0-.28-1,1.78,1.78,0,0,0-1.61-.89H41.38a21.72,21.72,0,0,0-3,.07,4,4,0,0,0-2,.91,3.43,3.43,0,0,0-.89,1.08A4,4,0,0,0,35,37.09,3.81,3.81,0,0,0,35,37.68Zm20.47-8.41h-.13a2.58,2.58,0,0,0-.73.16,4.25,4.25,0,0,0-2,1.33,3.4,3.4,0,0,0-.49.74,3.44,3.44,0,0,0-.3.81,3.79,3.79,0,0,0-.13.82v4.58h3.12a13.33,13.33,0,0,0,2-.09,2,2,0,0,0,.89-.44,1.82,1.82,0,0,0,.57-1,2,2,0,0,0,0-.78,2,2,0,0,0-.46-1,1.75,1.75,0,0,0-.94-.56,3,3,0,0,0-.94-.09h-.5ZM51.64,40.54v5.71a5.39,5.39,0,0,0,.1.89,3.61,3.61,0,0,0,.33.88,4,4,0,0,0,1.49,1.64,3.84,3.84,0,0,0,1,.49,4.4,4.4,0,0,0,.88.16V40.56Z"/><path class="cls-1" d="M69.73,40.52v-.89a2,2,0,0,0-.25-1,1.57,1.57,0,0,0-.94-.81,3,3,0,0,0-1.07-.16h-8a5.22,5.22,0,0,1,1.15-2.15,4.88,4.88,0,0,1,2.19-1.34c.24-.07.48-.12.72-.17a7.64,7.64,0,0,1,1.35-.15h3.78a5.2,5.2,0,0,1,4.52,4c0,.09.07.37.11.57a3.16,3.16,0,0,0,.08.36l.08.8V41.5a3.18,3.18,0,0,1-.13.8,1.77,1.77,0,0,1-.89,1.19,3,3,0,0,1-.88.25,15.92,15.92,0,0,1-2.18.06h-6.1c0,.16-.36,2.09,1.25,2.48a6.59,6.59,0,0,0,1.4.15h4.19a1.56,1.56,0,0,1,1,.44,1.8,1.8,0,0,1,.6,1,1.55,1.55,0,0,1,0,.71,1.86,1.86,0,0,1-.8,1.3,2.05,2.05,0,0,1-1.24.39H65a8.1,8.1,0,0,1-3.34-.79,4.4,4.4,0,0,1-1.85-2A5.78,5.78,0,0,1,59.34,46c0-.28-.11-.54-.13-.82s0-4.52,0-4.62Z"/><path class="cls-1" d="M106.08,45l-.12.11-1.21,1.46-2.22,2.66-.44.51a1.75,1.75,0,0,1-1.1.56,2.12,2.12,0,0,1-.71,0,1.78,1.78,0,0,1-1.36-1.14,2.08,2.08,0,0,1-.08-1.23,1.75,1.75,0,0,1,.35-.71l1.64-1.95,2.23-2.66.41-.47c.09-.1.09-.11,0-.23l-1.15-1.35L100.21,38c-.31-.37-.62-.74-.94-1.1a2.22,2.22,0,0,1-.45-.79,2.33,2.33,0,0,1,0-.83,1.7,1.7,0,0,1,.3-.82,1.77,1.77,0,0,1,.89-.7,2,2,0,0,1,.71-.14,1.71,1.71,0,0,1,1.2.45,9.74,9.74,0,0,1,.8.89c.69.8,1.37,1.63,2,2.43l1.18,1.41c.11.14.16.13.27,0,.28-.34.55-.68.84-1l.77-.88.82-1,1.25-1.49a2,2,0,0,1,1-.66,1.8,1.8,0,0,1,.65-.1,1.91,1.91,0,0,1,1.83,2.41,2.16,2.16,0,0,1-.49.89c-.51.59-1,1.2-1.51,1.77s-.79.89-1.18,1.4l-1.3,1.51-.06.08c-.16.18-.16.17,0,.36.45.53.88,1.07,1.33,1.6l1.54,1.78,1,1.26c.17.21.34.42.49.64a1.75,1.75,0,0,1,.25,1.09,1.8,1.8,0,0,1-.47,1.17,1.82,1.82,0,0,1-.82.54,2.2,2.2,0,0,1-1,.06,1.77,1.77,0,0,1-1-.56c-.52-.61-1.05-1.23-1.56-1.85l-1.17-1.44-1-1.25Z"/><path class="cls-1" d="M35.92,40.51H44a1.16,1.16,0,0,1,.48.11l1.67.79a6.4,6.4,0,0,1,1.35.82,3.79,3.79,0,0,1,1.09,1.39,4.63,4.63,0,0,1,.35,1.15,8.77,8.77,0,0,1,0,1.62,4.09,4.09,0,0,1-.24,1.09,3.73,3.73,0,0,1-1.42,1.87,4.55,4.55,0,0,1-1.08.54,10.47,10.47,0,0,1-1.07.27h-.54a16.35,16.35,0,0,1-2,0H36.82a2,2,0,0,1-1.88-2s0-.07,0-.11a1.9,1.9,0,0,1,.36-.88,2,2,0,0,1,1-.71,1.71,1.71,0,0,1,.55-.09h7.38a1.14,1.14,0,0,0,.57-.16.73.73,0,0,0,.33-.6.5.5,0,0,0-.12-.24,1.45,1.45,0,0,0-.56-.42l-2.15-1-.75-.36-1.77-.89-2-1A8.22,8.22,0,0,1,36.42,41l-.54-.47Z"/><path class="cls-1" d="M87.63,29.21V33.8h.67a3.31,3.31,0,0,1,.77.09,1.85,1.85,0,0,1,1.13.88A1.89,1.89,0,0,1,90.45,36a1.76,1.76,0,0,1-1.08,1.52,2,2,0,0,1-.39.13,4.22,4.22,0,0,1-1.12.07c-.23,0-.24,0-.24.23V50.29a1,1,0,0,1-.48,0,4.27,4.27,0,0,1-2.53-1.64,3.61,3.61,0,0,1-.6-1.17,8.74,8.74,0,0,1-.17-.89,10.88,10.88,0,0,1,0-1.51V33.49a3,3,0,0,1,0-.52,1.73,1.73,0,0,1,.08-.63,4,4,0,0,1,.6-1.3,4,4,0,0,1,1.69-1.37,4.37,4.37,0,0,1,.68-.27A2.52,2.52,0,0,1,87.63,29.21Z"/><path class="cls-1" d="M80,39.77V48.3a1.82,1.82,0,0,1-1.46,1.9,1.85,1.85,0,0,1-2.23-1.15,1.53,1.53,0,0,1-.11-.67V31a1.65,1.65,0,0,1,.36-1,1.86,1.86,0,0,1,.81-.63,1.91,1.91,0,0,1,.71-.1,1.88,1.88,0,0,1,1.78,1.22,2.42,2.42,0,0,1,.12.76v8.54Z"/><path class="cls-1" d="M92.44,41.89V35.47a1.71,1.71,0,0,1,.66-1.37,1.66,1.66,0,0,1,.68-.36,1.89,1.89,0,0,1,2.19.83,1.81,1.81,0,0,1,.32,1v12.9a1.88,1.88,0,0,1-.26.89,1.84,1.84,0,0,1-1.14.88,2,2,0,0,1-1.26-.07A1.86,1.86,0,0,1,92.54,49a2.13,2.13,0,0,1-.07-.75V41.89Z"/><path class="cls-1" d="M35,37.68a2.76,2.76,0,0,1,.06-.57,4,4,0,0,1,.43-1.17,3.33,3.33,0,0,1,.89-1.08,4,4,0,0,1,1.54-.81,2.84,2.84,0,0,1,.49-.1,20.45,20.45,0,0,1,3-.07h5.71a1.75,1.75,0,0,1,1.6.88,1.78,1.78,0,0,1,.29,1,2,2,0,0,1-.39,1.15,1.75,1.75,0,0,1-.94.66,2.79,2.79,0,0,1-.76.11H35Z"/><path class="cls-1" d="M55.45,29.27v4.52H56a3,3,0,0,1,.94.09,1.68,1.68,0,0,1,.94.57,1.76,1.76,0,0,1,.46,1,2,2,0,0,1,0,.78,1.82,1.82,0,0,1-.57,1,1.87,1.87,0,0,1-.89.44,11.26,11.26,0,0,1-2,.06H51.7V33.1a3.89,3.89,0,0,1,.14-.83,3.19,3.19,0,0,1,.29-.8,3.38,3.38,0,0,1,.5-.75,4.18,4.18,0,0,1,1-.89,4,4,0,0,1,1-.44,3.08,3.08,0,0,1,.73-.16Z"/><path class="cls-1" d="M51.64,40.52h3.81v9.76a5.24,5.24,0,0,1-.88-.16,4,4,0,0,1-1-.46A4,4,0,0,1,52.06,48a3.68,3.68,0,0,1-.33-.89,5.27,5.27,0,0,1-.1-.89V40.52Z"/><rect class="cls-2" width="148.34" height="79.51"/></g></g></g></svg>