<svg xmlns="http://www.w3.org/2000/svg" viewBox="0 0 148.34 79.51"><defs><style>.cls-1{fill:gray;}.cls-2{fill:none;}</style></defs><title>pfizer</title><g id="Layer_2" data-name="Layer 2"><g id="Layer_1-2" data-name="Layer 1"><g id="Layer_1-2-2" data-name="Layer 1-2"><path class="cls-1" d="M89.75,41a5.56,5.56,0,0,1,.89,0,5.7,5.7,0,0,0,1.47-.28,4.56,4.56,0,0,0,2.08-1.21A3.12,3.12,0,0,0,95,38.29a1.56,1.56,0,0,0,.06-.8,1,1,0,0,0-1.13-.77,2.51,2.51,0,0,0-1.37.31,5.94,5.94,0,0,0-2.91,3.89C89.6,41,89.65,41,89.75,41Z"/><path class="cls-1" d="M114.23,31.23C111.64,19.05,91.6,13,69.48,17.74s-38,18.35-35.37,30.53c1.5,7.1,8.87,12.07,19.09,14.11v-.15c.21-.81.44-1.61.62-2.42.16-.51.28-1,.41-1.52l.37-1.45c.19-.63.3-1.29.48-1.92s.26-1,.42-1.56.23-1,.39-1.53.17-.73.29-1.08c.25-.85.45-1.71.68-2.56.31-1.19.62-2.38.88-3.55.45-1.65.89-3.3,1.3-5,.28-1.09.57-2.18.88-3.27a2.33,2.33,0,0,1,.08-.36c.19-.65.35-1.3.53-2a36.08,36.08,0,0,1,1.3-4.18,13.52,13.52,0,0,1,1.77-3.2,8,8,0,0,1,4.15-2.86l.68-.16a10.4,10.4,0,0,1,2.23-.11,14,14,0,0,1,1.69.22,6,6,0,0,1,1.42.49,3.68,3.68,0,0,1,1.61,1.31,2.68,2.68,0,0,1,.33,1.59,5.07,5.07,0,0,1-.2,1A2.59,2.59,0,0,1,73,30a2.43,2.43,0,0,1-1.65-.47,1.7,1.7,0,0,1-.24-.22A2.27,2.27,0,0,1,71,26.61a1.61,1.61,0,0,0,.26-.77.89.89,0,0,0-.83-.94h-.06a2.87,2.87,0,0,0-2.11.84,5.33,5.33,0,0,0-1.33,2,14,14,0,0,0-.72,2.19L65,34.51a.38.38,0,0,1,0,.15c0,.13,0,.19.14.19H73.2c.27,0,.31.07.24.31-.2.71-.38,1.43-.59,2.14-.48,1.77-1,3.55-1.45,5.39l-.48,1.83L70,47.93c-.08.31-.1.33-.44.33H65.77c-.32,0-.37,0-.28-.36a6.41,6.41,0,0,1,.23-.78c.17-.53.3-1.08.45-1.62.64-2.36,1.26-4.73,1.9-7.1a2.56,2.56,0,0,1,.11-.46c0-.15.11-.38.15-.57s0-.21-.17-.21h-3.6c-.28,0-.29,0-.36.27-.21.8-.42,1.6-.62,2.39s-.49,1.85-.73,2.78l-.77,3.08c-.37,1.44-.75,2.88-1.13,4.33-.25,1-.48,1.9-.73,2.85-.2.72-.38,1.44-.57,2.17s-.37,1.46-.57,2.2c-.11.46-.25.89-.36,1.39s-.3,1.19-.46,1.77c-.21.77-.4,1.53-.6,2.29a.06.06,0,0,1,0,.06l-.08.31A67.69,67.69,0,0,0,78.87,61.8C101,57.11,116.82,43.46,114.23,31.23ZM58.81,34.45a8.74,8.74,0,0,1-1.16,3.25,7.3,7.3,0,0,1-4.26,2.76,22.41,22.41,0,0,1-5,.65H47.05c-.14,0-.22,0-.22.18-.6,2.24-1.21,4.47-1.81,6.71,0,.15-.09.21-.25.21h-4c-.16,0-.21-.05-.16-.21l.79-3v-.07l.69-2.49c.13-.46.24-.94.37-1.41.22-.78.44-1.57.65-2.36.28-1,.54-2.05.82-3.08.21-.77.43-1.55.65-2.33q.6-2.38,1.26-4.75c0-.18.09-.18.23-.18h5.56a11.4,11.4,0,0,1,4.2.76,6.42,6.42,0,0,1,1.38.77,4.23,4.23,0,0,1,1.38,1.93A5.59,5.59,0,0,1,58.81,34.45ZM84.32,45.7c-.08.35-.18.72-.28,1.07a3.05,3.05,0,0,1-.26.79,4,4,0,0,0-.13.46c0,.14-.09.2-.23.19H72.69c-.21,0-.21-.06-.2-.21a5.11,5.11,0,0,1,.39-1.64.22.22,0,0,1,.06-.18,21.85,21.85,0,0,1,4.78-5.87,33.16,33.16,0,0,0,2.53-2.49,3.92,3.92,0,0,0,.55-.67c0-.06-.08,0-.11,0H75c-.17,0-.26,0-.19-.22.19-.62.34-1.24.5-1.86,0-.14.12-.1.2-.1H77a.33.33,0,0,1,.27-.06H79.4a.32.32,0,0,1,.27.06H86c.18,0,.25,0,.15.2v.08a11.76,11.76,0,0,1-1,1.83,7.2,7.2,0,0,1-.89,1.24A28.6,28.6,0,0,1,82,40.7c-.93.88-1.89,1.77-2.78,2.66a10.27,10.27,0,0,0-1.47,1.87,1,1,0,0,0-.12.23s.12,0,.18,0h1.49a.45.45,0,0,1,.25,0h3.95a1.94,1.94,0,0,1,.76,0C84.36,45.49,84.34,45.6,84.32,45.7Zm6.32.15a2.93,2.93,0,0,0,1.84.25,4,4,0,0,0,.68-.18.8.8,0,0,1,.3-.06,8.51,8.51,0,0,0,2.09-1.3l.38-.35a.17.17,0,0,1,.16-.06c.12.36.26.72.41,1.06a2.34,2.34,0,0,1,.33.89l-.29.32a8.46,8.46,0,0,1-1.63,1.22,10.26,10.26,0,0,1-2.2.83,15.21,15.21,0,0,1-1.51.2,7.78,7.78,0,0,1-2.15-.17,5.26,5.26,0,0,1-1.23-.42l-.38-.19A7.71,7.71,0,0,1,86.35,47a5,5,0,0,1-.88-1.42,2.35,2.35,0,0,1-.33-.88,9.59,9.59,0,0,1-.06-1.07.43.43,0,0,1,.06-.31v-.49a7.55,7.55,0,0,1,.41-2A9,9,0,0,1,87.11,38a9.83,9.83,0,0,1,1.72-1.63c.15-.12.32-.2.47-.31a10.07,10.07,0,0,1,2.08-1,11.52,11.52,0,0,1,1.83-.41H94a.76.76,0,0,0,.3,0h.38a8,8,0,0,1,1.26.23,4.47,4.47,0,0,1,1.39.67,3.28,3.28,0,0,1,.81.89,3.6,3.6,0,0,1-.7,3.67,5.47,5.47,0,0,1-1.6,1.43.52.52,0,0,1-.21.18A10.7,10.7,0,0,1,93,42.6l-.39.08a16.21,16.21,0,0,1-2.78.23h-.14c-.26,0-.31.07-.31.32a6.61,6.61,0,0,0,0,.89A2.3,2.3,0,0,0,90.64,45.85ZM112,37.33a2.68,2.68,0,0,1-.41,1.25,2,2,0,0,1-2.11.78,1.57,1.57,0,0,1-1.11-.89,2.66,2.66,0,0,1-.13-.61c-.08-.59-.38-.79-1-.73a1.63,1.63,0,0,0-.89.34,5.63,5.63,0,0,0-1.54,1.82A14.26,14.26,0,0,0,103.42,43c-.46,1.67-.9,3.33-1.34,5a.22.22,0,0,1-.25.19h-4c-.11,0-.11,0-.11-.13.12-.47.24-.91.35-1.36.21-.75.42-1.51.62-2.27.29-1.11.59-2.22.89-3.32V41a4.45,4.45,0,0,1,.22-1c.33-1.07.6-2.15.89-3.23,0-.16,0-.33.17-.44.12-.39.24-.78.33-1.17,0-.13.09-.19.24-.19h3.91c.11,0,.11,0,.11.14-.24.8-.46,1.6-.69,2.41h.06a13.46,13.46,0,0,1,1.77-1.69,4.71,4.71,0,0,1,3.15-1.07,4.13,4.13,0,0,1,1.15.29A2.2,2.2,0,0,1,112,37Z"/><path class="cls-1" d="M53.26,30.72c-.19-.07-.38-.14-.56-.19A9.79,9.79,0,0,0,50,30.29c-.14,0-.14.06-.14.13l-.31,1.12-1.14,4.28c-.3,1.06-.59,2.11-.89,3.18a12.22,12.22,0,0,0,3.25-.34A4.48,4.48,0,0,0,53,37.28a5.44,5.44,0,0,0,.89-1.55,8.35,8.35,0,0,0,.64-2.46.33.33,0,0,1,0-.14A2.22,2.22,0,0,0,53.26,30.72Z"/><rect class="cls-2" width="148.34" height="79.51"/></g></g></g></svg>