<svg xmlns="http://www.w3.org/2000/svg" viewBox="0 0 148.34 79.51"><defs><style>.cls-1{fill:gray;}.cls-2{fill:none;}</style></defs><title>phillips</title><g id="Layer_2" data-name="Layer 2"><g id="Layer_1-2" data-name="Layer 1"><g id="Layer_1-2-2" data-name="Layer 1-2"><path class="cls-1" d="M26.85,34.23c3.14,0,4.95,1.36,4.95,3.71S30,41.36,26.85,41.36H23.54v3.91H22.08v-11Zm-3.31,5.92H26.8c2.29,0,3.61-.46,3.61-2.18s-1.32-2.5-3.61-2.5H23.54Z"/><path class="cls-1" d="M46,45.27V41.68H38.75v3.55H37.38v-11h1.37v5.84H46V34.23h1.38v11Z"/><path class="cls-1" d="M55,45.27v-11h1.45v11Z"/><path class="cls-1" d="M73,43.65v1.62h-9.1v-11h1.42v9.42Z"/><path class="cls-1" d="M87.61,43.65v1.62H78.48v-11h1.44v9.42Z"/><path class="cls-1" d="M93.12,45.27v-11h1.45v11Z"/><path class="cls-1" d="M107.2,34.23c3.14,0,5,1.36,5,3.71s-1.77,3.85-5,3.85h-3.31v3.48h-1.46v-11Zm-3.31,6.34h3.26c2.28,0,3.61-.88,3.61-2.6s-1.33-2.5-3.61-2.5h-3.26Z"/><path class="cls-1" d="M125.93,35.21l-.6,1.15a7.26,7.26,0,0,0-3.5-.89c-1.64,0-2.66.54-2.66,1.47,0,2.84,7.09,1.35,7.09,5.32,0,1.84-1.86,3-4.58,3a7.83,7.83,0,0,1-4.86-1.68l.65-1.14A6.74,6.74,0,0,0,121.69,44c1.84,0,3-.64,3-1.7,0-2.9-7.09-1.36-7.09-5.32,0-1.77,1.77-2.86,4.39-2.86A8.37,8.37,0,0,1,125.93,35.21Z"/><rect class="cls-2" width="148.34" height="79.51"/></g></g></g></svg>