<svg xmlns="http://www.w3.org/2000/svg" viewBox="0 0 148.34 79.51"><defs><style>.cls-1{fill:none;}.cls-2{fill:gray;}</style></defs><title>lg</title><g id="Layer_2" data-name="Layer 2"><g id="Layer_1-2" data-name="Layer 1"><g id="Layer_1-2-2" data-name="Layer 1-2"><rect class="cls-1" width="148.34" height="79.51"/><path class="cls-2" d="M51.53,22.06A17.69,17.69,0,1,0,69.22,39.74,17.7,17.7,0,0,0,51.53,22.06Zm4.23,24.06v1.39H50.83V32h1.42V46.12ZM62,50.22A14.81,14.81,0,1,1,51.55,25h.7v1.37h-.7A13.42,13.42,0,1,0,64.94,40.66v-.2H55.78V39.09H66.35v.66A14.66,14.66,0,0,1,62,50.22ZM48,34.11A2.12,2.12,0,1,1,45.89,32,2.11,2.11,0,0,1,48,34.11Z"/><path class="cls-2" d="M82.55,28H77.23V51.08H93.56V46.56h-11Zm22.71,14.25h4.34v4a12.25,12.25,0,0,1-3.84.62c-4.79,0-6.39-2.43-6.39-7.37,0-4.71,1.53-7.49,6.31-7.49a6.15,6.15,0,0,1,5.43,2.43l3.29-3c-2-2.89-5.54-3.76-8.87-3.76-7.44,0-11.35,4.06-11.35,11.81s3.55,11.88,11.32,11.88c3.55,0,7.09-.88,9-2.23V38h-9.21Z"/></g></g></g></svg>