<svg xmlns="http://www.w3.org/2000/svg" viewBox="0 0 100 100"><defs><style>.cls-1{fill:#f18e20;}.cls-2{fill:none;}</style></defs><title>airport</title><g id="Layer_2" data-name="Layer 2"><g id="Layer_1-2" data-name="Layer 1"><path class="cls-1" d="M61.7,80.05l-.32.19L61.16,80l.45-.38-3.17-9.72s.37-.32.35-.37c-.39.32-.62.55-.7.53s-3.57-10.69-3.64-10.94.34-.34.34-.34l-1.47-2.26-.27.2S49.91,52,49.74,51.94s-4.31,3.78-7.42,6a37.46,37.46,0,0,1-5.7,3.54c-.65.3-.66.51-.65,1s.94,9,1,9.78-.08.84-.27,1l-1.93,1.62-4.84-9s-.74.55-.94.53-.36-.28-.36-.28a14.93,14.93,0,0,1-1.78,1.07.78.78,0,0,1-.34-.1,8.61,8.61,0,0,1-2,.81h0c-.09-.19,1.14-1.79,1.14-1.79a.81.81,0,0,1-.06-.35A15.8,15.8,0,0,1,27,64.21s-.24-.19-.23-.39.68-.83.68-.83l-8.31-6.1,1.94-1.6c.2-.16.35-.28,1.06-.1s9.25,2.44,9.71,2.52.67.1,1.08-.48a35.1,35.1,0,0,1,4.47-4.94c2.76-2.65,7.29-6,7.26-6.22s-4.31-4-4.31-4l.25-.22-2-1.78s-.29.31-.4.27-10.38-5.2-10.47-5.25.27-.26.65-.59c0,0-.43.29-.43.29l-9.31-4.6-.45.36-.2-.24.24-.28s-.47-.13-.62,0a5.66,5.66,0,0,1,.77-.82,3.46,3.46,0,0,1,.7-.46s-.29-.19,0-.42a8.41,8.41,0,0,1,1.64-.25.83.83,0,0,0,.26-.15c.1-.1.29,0,.42,0s.23-.2.23-.2,4,.76,10.59,2.36,14.5,3.37,14.5,3.37a4.83,4.83,0,0,0,.48-.47c.25-.29.35-.43.35-.43a.66.66,0,0,1,0-.54,12.86,12.86,0,0,1,2-1.92A8.21,8.21,0,0,1,51.18,29c.21-.06.48.12.77.37a17,17,0,0,1,1.52,1.79c.2.29.3.5,0,.84a21.33,21.33,0,0,1-2.1,1.79c-.38.28-.88.53-.85.6s1.78.3,2.61.53a10.69,10.69,0,0,0,2.73.45c.33-.08.37-.1.22.15a.93.93,0,0,1-.61.44c-.22,0-.45.16-.46.31s.44.16.63.12.37-.31.52-.36a2.19,2.19,0,0,0,.85-.34c1.49-1.32,3.71-3.27,8.68-7.44,5.32-4.45,7-5.72,10.42-7.38,3.15-1.51,4.08-1.45,4.67-1.52a2.19,2.19,0,0,1,1.46.45h0a2.05,2.05,0,0,1,.23,1.48c-.16.56-.25,1.47-2.27,4.27C78,28.63,76.41,30,71.07,34.44c-5,4.13-7.31,6-8.87,7.2a2.13,2.13,0,0,0-.48.77c-.07.14-.37.28-.44.45s-.05.62,0,.63.32-.19.39-.4a.88.88,0,0,1,.54-.51c.27-.11.25-.08.11.23a10.2,10.2,0,0,0,0,2.7c.1.84,0,2.57.12,2.61s.4-.4.74-.73a22.5,22.5,0,0,1,2.14-1.74c.4-.26.58-.12.86.12a18.48,18.48,0,0,1,1.55,1.74c.22.33.35.61.26.8a7.69,7.69,0,0,1-1.45,1.46,13.78,13.78,0,0,1-2.25,1.61.71.71,0,0,1-.54-.1l-.5.28c-.33.21-.55.38-.55.38s.54,7.94,1.11,14.55.71,10.6.71,10.6-.24.12-.24.19.05.33-.06.41a1,1,0,0,0-.2.23,7.42,7.42,0,0,1-.51,1.54c-.28.28-.42,0-.42,0a3.49,3.49,0,0,1-.58.6,4.9,4.9,0,0,1-.95.61C61.76,80.52,61.7,80.05,61.7,80.05Z"/><rect class="cls-2" width="100" height="100"/></g></g></svg>