<svg xmlns="http://www.w3.org/2000/svg" viewBox="0 0 100 100"><defs><style>.cls-1{fill:#f18e20;}.cls-2{fill:none;}</style></defs><title>Asset 43</title><g id="Layer_2" data-name="Layer 2"><g id="Layer_1-2" data-name="Layer 1"><polygon class="cls-1" points="75.34 65.99 75.41 66.02 75.39 66 75.34 65.99"/><polygon class="cls-1" points="24.59 66.02 24.66 65.99 24.61 66 24.59 66.02"/><path class="cls-1" d="M78.74,59.47,70.22,65a.3.3,0,0,0-.13.32.3.3,0,0,0,.14.19l.12,0,4,.38a14.32,14.32,0,0,1-6,4.49c-3.72,1.48-7.88,1.29-11.73.46a14.17,14.17,0,0,1-3.78-1.11V38.91H63a2.27,2.27,0,1,0,0-2.41H52.8V26.6a6.13,6.13,0,1,0-5.32.14V36.5H37a2.27,2.27,0,1,0,0,2.41H47.48V69.5c-.42.5-1.33.62-1.93.8s-1.42.38-2.13.54a24.83,24.83,0,0,1-6.71.6,14.58,14.58,0,0,1-10.94-5.56l3.88-.37.12,0a.3.3,0,0,0,.14-.19.3.3,0,0,0-.13-.32l-8.52-5.49a.31.31,0,0,0-.46.26L21,69.87a.31.31,0,0,0,.21.27.3.3,0,0,0,.33-.1l2.52-3.35c2.06,11.22,19.82,10.13,25.57,18.22a5.78,5.78,0,0,0,.68,0c5.75-8.09,23.51-7,25.57-18.22L78.43,70a.3.3,0,0,0,.33.1.31.31,0,0,0,.21-.27l.23-10.14A.31.31,0,0,0,78.74,59.47ZM50,25.23a4.09,4.09,0,1,1,4.09-4.09A4.09,4.09,0,0,1,50,25.23Z"/><rect class="cls-2" width="100" height="100"/></g></g></svg>