<svg xmlns="http://www.w3.org/2000/svg" viewBox="0 0 19 21.13"><defs><style>.cls-1{fill:#f7931e;}</style></defs><title>call me back</title><g id="Layer_2" data-name="Layer 2"><g id="Layer_1-2" data-name="Layer 1"><path class="cls-1" d="M18,15.34a1,1,0,0,1,1,1v3.71a1,1,0,0,1-.3.74,1,1,0,0,1-.74.3A17.3,17.3,0,0,1,5.27,15.86,17.32,17.32,0,0,1,0,3.17a1,1,0,0,1,1-1H4.75a1,1,0,0,1,1,1,12,12,0,0,0,.59,3.76A1,1,0,0,1,6.14,8L3.81,10.34a15.86,15.86,0,0,0,7,7L13.11,15a1,1,0,0,1,1.09-.25A11.71,11.71,0,0,0,18,15.34ZM14.39,0V3.17h4.2V7.42h-4.2v3.17l-5.3-5.3Z"/></g></g></svg>