<svg xmlns="http://www.w3.org/2000/svg" viewBox="0 0 18 18"><defs><style>.cls-1{fill:#f18e20;}</style></defs><title>call us</title><g id="Layer_2" data-name="Layer 2"><g id="Layer_1-2" data-name="Layer 1"><path class="cls-1" d="M17,12.52a.94.94,0,0,1,.7.28.93.93,0,0,1,.28.7V17a1,1,0,0,1-1,1A16.39,16.39,0,0,1,5,13,16.39,16.39,0,0,1,0,1,1,1,0,0,1,1,0H4.5a.93.93,0,0,1,.7.28.94.94,0,0,1,.28.7,11.12,11.12,0,0,0,.57,3.57,1,1,0,0,1-.24,1l-2.2,2.2a15,15,0,0,0,6.61,6.61l2.2-2.2a1,1,0,0,1,1-.24A11.12,11.12,0,0,0,17,12.52ZM16,9a6.77,6.77,0,0,0-2-4.95A6.77,6.77,0,0,0,9,2V0a8.7,8.7,0,0,1,6.38,2.63A8.66,8.66,0,0,1,18,9ZM12,9A3,3,0,0,0,9,6V4a4.85,4.85,0,0,1,3.54,1.48A4.87,4.87,0,0,1,14,9Z"/></g></g></svg>