<svg xmlns="http://www.w3.org/2000/svg" viewBox="0 0 100 100"><defs><style>.cls-1{fill:#f18e20;}.cls-2{fill:none;}</style></defs><title>corporative</title><g id="Layer_2" data-name="Layer 2"><g id="Layer_1-2" data-name="Layer 1"><path class="cls-1" d="M30.65,53.84a34.87,34.87,0,0,1,8.08-1.06,34.88,34.88,0,0,1,8.09,1.06,25.64,25.64,0,0,1,8,3.45q3.64,2.39,3.64,5.43v7H18.86v-7c0-2,1.23-3.84,3.71-5.43A26.28,26.28,0,0,1,30.65,53.84Zm14-9.14a7.93,7.93,0,0,1-5.9,2.52,8.61,8.61,0,0,1-8.48-8.48,8.61,8.61,0,0,1,8.48-8.49,7.93,7.93,0,0,1,5.9,2.52,8.49,8.49,0,0,1,0,11.93Zm22.6,0a8.49,8.49,0,0,1-14.45-6,8.44,8.44,0,0,1,14.45-6,8.32,8.32,0,0,1,0,11.93Zm-6,8.08a34.87,34.87,0,0,1,8.08,1.06,26.28,26.28,0,0,1,8.08,3.45c2.48,1.59,3.71,3.4,3.71,5.43v7h-17v-7q0-5.82-5.57-9.8A19.67,19.67,0,0,1,61.27,52.78Z"/><rect class="cls-2" width="100" height="100"/></g></g></svg>