<svg xmlns="http://www.w3.org/2000/svg" viewBox="0 0 20.04 20.23"><defs><style>.cls-1{fill:#f7931e;}</style></defs><title>email us</title><g id="Layer_2" data-name="Layer 2"><g id="Layer_1-2" data-name="Layer 1"><path class="cls-1" d="M20,10.13C20,13.66,18.1,16,15.43,16,14,16,13,15.43,12.6,14.19l0-.17a3.78,3.78,0,0,1-3.17,1.7,5.21,5.21,0,0,1-5-5.47c0-3,1.77-5.57,4.6-5.57A3.8,3.8,0,0,1,11.78,6V5H15v7.8c0,.82.29,1.06.73,1.06.83,0,1.72-1.49,1.72-3.63,0-4.37-2.61-7.82-7.29-7.82a7.79,7.79,0,0,0-7.59,7.94,7.28,7.28,0,0,0,7.3,7.54,7.46,7.46,0,0,0,4.41-1.51l1.23,2.06a9.8,9.8,0,0,1-5.64,1.82A9.67,9.67,0,0,1,0,10.32,10.19,10.19,0,0,1,10.18,0,9.75,9.75,0,0,1,20,10.13ZM8,10.13c0,1.42.65,2.69,1.75,2.69s1.85-1.23,1.85-2.67S10.9,7.66,9.7,7.66,8,8.81,8,10.13Z"/></g></g></svg>