<svg xmlns="http://www.w3.org/2000/svg" viewBox="0 0 69.68 32"><defs><style>.cls-1{fill:#fefefe;}.cls-2{fill:#f05b29;}.cls-3{fill:#f05b2a;}.cls-4{fill:#393f4d;}.cls-5{fill:#ec1e25;}.cls-6{fill:#3b414f;}.cls-7{fill:#3c4250;}.cls-8{fill:#3c424f;}.cls-9{fill:#3c414f;}.cls-10{fill:#3d4350;}.cls-11{fill:#474d5a;}.cls-12{fill:#464b58;}.cls-13{fill:#424855;}.cls-14{fill:#444a57;}.cls-15{fill:#4b505d;}.cls-16{fill:#404653;}.cls-17{fill:#77747b;}.cls-18{fill:#f4f5f5;}.cls-19{fill:#f69396;}.cls-20{fill:#fbfbfb;}.cls-21{fill:#f8f9f9;}.cls-22{fill:#f7f8f8;}</style></defs><title>ggti</title><g id="Layer_2" data-name="Layer 2"><g id="Layer_1-2" data-name="Layer 1"><path class="cls-1" d="M0,32V0H69.68V32Zm31.13-7.84-.07.07h0l-.1.09s0,0-.05.05l-.33.29c-.25.2-.49.4-.74.58s-.7.51-1.07.74a13.73,13.73,0,0,1-1.6.87,11.11,11.11,0,0,1-1.35.53c-.42.14-.84.27-1.26.37a11,11,0,0,1-1.7.31c-.4,0-.79.08-1.19.1a12.29,12.29,0,0,1-1.82,0,13.85,13.85,0,0,1-1.44-.2c-.35-.06-.69-.15-1-.23A11,11,0,0,1,16,27.27c-.34-.13-.69-.27-1-.43s-.77-.39-1.15-.6a11.08,11.08,0,0,1-1.48-1c-.34-.26-.66-.54-1-.81s-.58-.55-.85-.83a13.67,13.67,0,0,1-1.2-1.44l-.59-.88a.15.15,0,0,0-.16-.08H5.31c0,.05,0,.09.05.13.13.26.26.51.4.76a14.15,14.15,0,0,0,1.07,1.69,13.74,13.74,0,0,0,1.1,1.32c.2.21.4.42.62.62s.56.51.85.75a11.5,11.5,0,0,0,1.13.85c.33.22.67.42,1,.63a11.5,11.5,0,0,0,1.21.62,13.72,13.72,0,0,0,1.5.59,15.24,15.24,0,0,0,1.6.45,16.71,16.71,0,0,0,2.53.34,13.9,13.9,0,0,0,2,0l1.28-.17a11.1,11.1,0,0,0,1.39-.3A14.79,14.79,0,0,0,24.56,29c.28-.12.56-.22.83-.35l1.19-.59a11.51,11.51,0,0,0,1.21-.74,15.67,15.67,0,0,0,1.38-1c.43-.37.84-.77,1.23-1.18a.11.11,0,0,0,.09-.1l.13-.14.09-.1.14-.16s.07,0,.07-.08l0,0c.05,0,.09-.05.09-.1l.08-.09.07,0c-.11.14-.22.29-.34.43-.25.3-.51.6-.78.89s-.46.45-.69.67a11.19,11.19,0,0,1-1.33,1.15,12.14,12.14,0,0,1-1.12.75l-.63.35c-.35.18-.7.37-1.06.54s-.66.3-1,.43a14.51,14.51,0,0,1-1.73.55c-.47.12-.94.21-1.42.29s-.92.13-1.39.16a16.85,16.85,0,0,1-1.88,0,13.48,13.48,0,0,1-1.9-.22,12.66,12.66,0,0,1-1.7-.39c-.34-.11-.68-.2-1-.33a15.08,15.08,0,0,1-1.44-.6,16.23,16.23,0,0,1-1.53-.83c-.37-.23-.74-.48-1.09-.73S8.5,27,8.2,26.7s-.6-.54-.89-.82a11.14,11.14,0,0,1-.94-1,15.66,15.66,0,0,1-1.29-1.74,14.16,14.16,0,0,1-1-1.83A.12.12,0,0,0,4,21.23h-.6l.06.16a15.32,15.32,0,0,0,2,3.67c.24.33.5.65.76,1A12.75,12.75,0,0,0,7.3,27.31a15.65,15.65,0,0,0,1.31,1.11,18.45,18.45,0,0,0,1.66,1.11,16.46,16.46,0,0,0,1.84.9,15.05,15.05,0,0,0,1.42.51,15.67,15.67,0,0,0,1.64.4,13.1,13.1,0,0,0,1.65.23,11.47,11.47,0,0,0,1.55,0c.45,0,.91,0,1.36-.07a14.76,14.76,0,0,0,2.37-.44c.41-.11.81-.24,1.21-.37s.56-.21.84-.33.76-.34,1.14-.53.48-.26.72-.4.52-.32.78-.49a11.2,11.2,0,0,0,1.13-.82c.23-.18.44-.37.66-.56a9.66,9.66,0,0,0,.91-.9.14.14,0,0,0,.1-.1l0,0,.07-.07.1-.12,0-.05L30,26.2l.07-.08.17-.21.06-.07,0-.05.06-.07.06-.07.07-.08,0,0,.11-.15,0,0,.09-.12,0,0,0-.05.05-.07.09-.12.06-.09,0-.05.06-.09,0-.06a0,0,0,0,0,0,0l0-.06s0,0,0,0l.06-.1h0l0-.06.11-.16.1-.18,0-.06.06-.1,0,0a2.42,2.42,0,0,0,.24-.45.86.86,0,0,0-.26.34h0l-.08.1,0,0-.05-.07-.06.06v0h0a.66.66,0,0,0-.24.23ZM4.2,7.78h0a.18.18,0,0,0,.13-.11l.09-.08.07-.07.16-.14.08-.07,0,0a.08.08,0,0,0,.08-.07l.07,0S5,7.14,5,7.09l0,0s.08,0,.1-.09l0,0,.05,0,.11-.08a.07.07,0,0,0,.08-.06l0,0,.08-.06h0l.05,0,0,0,0,0c.32-.21.64-.43,1-.63a14.45,14.45,0,0,1,1.4-.75c.35-.16.71-.3,1.08-.44a13,13,0,0,1,1.5-.46c.45-.11.91-.2,1.37-.27a17,17,0,0,1,1.74-.15c.3,0,.59,0,.89,0a10.86,10.86,0,0,1,1.28.1c.4.06.8.12,1.2.2a13.5,13.5,0,0,1,2.91.94,10.58,10.58,0,0,1,1.26.63c.26.15.52.3.78.47a16.26,16.26,0,0,1,2.5,2.05c.2.2.39.42.57.64a10.64,10.64,0,0,1,.83,1c.18.25.35.51.52.77a.17.17,0,0,0,.17.09h3.49c0-.05,0-.09-.05-.13-.2-.43-.41-.85-.65-1.27A15.54,15.54,0,0,0,28.57,8c-.26-.35-.53-.71-.82-1a10.41,10.41,0,0,0-1-1.07c-.29-.26-.59-.53-.89-.78a10.76,10.76,0,0,0-1.23-.9l-1-.6a14.81,14.81,0,0,0-1.5-.73c-.38-.15-.77-.3-1.16-.43A15.49,15.49,0,0,0,19.17,2c-.38-.08-.76-.12-1.14-.18a10.2,10.2,0,0,0-1.34-.1c-.38,0-.75,0-1.13,0A13.33,13.33,0,0,0,14,1.87a16.35,16.35,0,0,0-1.69.35,12.36,12.36,0,0,0-1.46.46c-.37.14-.73.3-1.1.45l-.52.25-.9.51c-.33.2-.65.41-1,.62s-.36.26-.53.4-.59.48-.88.74-.5.47-.74.72L4.61,7l-.07.08-.27.31,0,.05,0,0s-.07,0-.06.08l-.06.07S4,7.7,4,7.74l-.1.14,0,0,0,0a.08.08,0,0,0-.06.08l0,0,0,.05h0l-.05.07c0,.07.07,0,.1,0l.36-.34A.11.11,0,0,0,4.2,7.78Zm.14-.73a.8.8,0,0,0-.2.28h0l.21-.26.45-.54,0-.06s0,0,0-.05h0l0,0ZM6.19,5.16,6.35,5,6.4,5l.07-.06.08-.06.18-.15.08-.07L7,4.53l0,0,0,0,.08-.06h0l.05,0h0l.1-.09h0l0,0h0l0,0,0,0,0,0h0l0,0L7.71,4l.12-.09s0,0,0,0l.08-.06.07,0,.05,0h0l0,0,.56-.34a19,19,0,0,1,1.8-.91c.39-.17.79-.32,1.2-.46s1-.3,1.54-.43a10.69,10.69,0,0,1,1.6-.27c.39,0,.78-.09,1.17-.1s1.06,0,1.59,0a15.25,15.25,0,0,1,2,.24c.43.08.86.18,1.28.3s.65.18,1,.29.86.33,1.29.5a9.67,9.67,0,0,1,1.12.55l.75.42a6,6,0,0,1,.53.34q.53.36,1.05.75a11.16,11.16,0,0,1,1.22,1.06c.32.31.63.63.92,1s.58.69.86,1.05.41.59.62.89a12,12,0,0,1,.71,1.21c.17.32.33.65.49,1,0,0,0,.07.05.07a3.12,3.12,0,0,0,.43,0c0-.13-.09-.24-.13-.35l-.45-1a14,14,0,0,0-.92-1.7,14.16,14.16,0,0,0-.84-1.19,13.42,13.42,0,0,0-1.16-1.34c-.32-.32-.64-.62-1-.92a8.43,8.43,0,0,0-.74-.6,10.44,10.44,0,0,0-1.1-.78q-.3-.19-.6-.36c-.32-.18-.64-.36-1-.52s-.62-.3-.94-.42-.84-.32-1.27-.46a15.19,15.19,0,0,0-2.12-.5A16.75,16.75,0,0,0,17.81.42c-.48,0-1,0-1.45,0a13.41,13.41,0,0,0-2.27.28L12.92,1c-.31.08-.61.19-.92.29s-.55.19-.81.31-.73.32-1.09.49c-.19.09-.37.19-.56.3s-.67.4-1,.61-.5.34-.74.52a12.58,12.58,0,0,0-1.07.86l-.39.36c-.22.22-.44.43-.65.66s-.41.46-.61.69L5,6.16l0,.07,0,0,0,.07,0,.07,0,0A.69.69,0,0,0,5,6.33l.09-.1.11-.11,0,0,.36-.36.07-.07.45-.41ZM23.45,9.09a.28.28,0,0,0,.18.11c-.05-.07-.08-.16-.17-.18l-.05,0A12.25,12.25,0,0,0,21.8,7.62c-.32-.22-.65-.44-1-.64a12.27,12.27,0,0,0-1.9-.91c-.45-.16-.9-.31-1.35-.44s-.82-.18-1.22-.26a11.41,11.41,0,0,0-1.75-.18c-.35,0-.71,0-1.07,0A14.12,14.12,0,0,0,12,5.37a13.27,13.27,0,0,0-1.63.38c-.37.12-.73.24-1.09.38a14.44,14.44,0,0,0-1.38.65c-.4.22-.8.47-1.18.73A13.09,13.09,0,0,0,5.07,8.8q-.42.4-.81.84c-.25.28-.47.58-.71.87l-.2.29H8a.29.29,0,0,0,.22-.09,13,13,0,0,1,1.12-1,11.44,11.44,0,0,1,1.43-1,13.19,13.19,0,0,1,1.25-.62,12.65,12.65,0,0,1,1.57-.54l.83-.2.89-.14q.6-.06,1.2-.09a7.85,7.85,0,0,1,.84,0c.42,0,.84.06,1.25.11A10.88,10.88,0,0,1,20,7.6c.32.09.65.18,1,.29a11.57,11.57,0,0,1,1.36.58l.52.27ZM12.71,23.85l.64.49a10.11,10.11,0,0,0,1.11.73,13,13,0,0,0,2.07,1,15.13,15.13,0,0,0,1.66.49A14.17,14.17,0,0,0,20,26.8a11.36,11.36,0,0,0,1.65,0,12.54,12.54,0,0,0,1.93-.22,12.88,12.88,0,0,0,1.62-.43c.34-.11.67-.25,1-.38A9.91,9.91,0,0,0,27.76,25a13.38,13.38,0,0,0,1.41-.95,11.65,11.65,0,0,0,1.06-.92c.24-.24.48-.47.7-.72s.54-.66.8-1c.06-.07.1-.14.16-.22H27.18a.25.25,0,0,0-.16.06c-.08.09-.17.17-.26.26-.32.29-.65.57-1,.83s-.6.41-.9.6a10,10,0,0,1-1.37.74,10,10,0,0,1-1.28.5,10.62,10.62,0,0,1-1.26.34,13.52,13.52,0,0,1-1.42.22,12.58,12.58,0,0,1-2.53,0,13.05,13.05,0,0,1-1.37-.23,12.27,12.27,0,0,1-2-.62c-.31-.13-.61-.27-.92-.42l-.53-.29-.46-.26c0-.08-.1-.1-.2-.12a.67.67,0,0,0,.2.18l.17.17.07.07.05,0a.16.16,0,0,0,.12.12l.07.06a.28.28,0,0,0,.17.15l0,0c0,.05,0,.09.1.09l0,0A.13.13,0,0,0,12.71,23.85Zm7.8-10.43-.08-.08-.14-.13a5.82,5.82,0,0,0-1.56-.82A7.17,7.17,0,0,0,16.84,12a9.44,9.44,0,0,0-1.68.05,6.52,6.52,0,0,0-1.51.36,4.38,4.38,0,0,0-1.55,1,3.52,3.52,0,0,0-.74,1.08,4.46,4.46,0,0,0-.31,2,4.4,4.4,0,0,0,.21,1.08A3.48,3.48,0,0,0,12,18.82a3.72,3.72,0,0,0,1.13.83,5.88,5.88,0,0,0,.73.3,5.49,5.49,0,0,0,1.2.27,9,9,0,0,0,1.64.07A7.08,7.08,0,0,0,18.48,20a6.06,6.06,0,0,0,1.16-.45,4.53,4.53,0,0,0,1.08-.82.24.24,0,0,0,.07-.18v-3a.37.37,0,0,0,0-.11H16.06c0,.14,0,1.62,0,1.72h2.22v.59s0,.06-.06.08a2.65,2.65,0,0,1-1.18.41,4.35,4.35,0,0,1-1.44,0,2.53,2.53,0,0,1-1.12-.47,1.74,1.74,0,0,1-.64-1,2.69,2.69,0,0,1,0-.94,1.78,1.78,0,0,1,.75-1.26,2.42,2.42,0,0,1,.93-.37,4.5,4.5,0,0,1,1.37-.07,3.16,3.16,0,0,1,1.62.64l.14.11Zm-10.63,0-.06-.07a4.89,4.89,0,0,0-1.37-.82A6.56,6.56,0,0,0,6.22,12a9.38,9.38,0,0,0-1.3,0A6.85,6.85,0,0,0,3,12.47a4.18,4.18,0,0,0-1.54,1,3.38,3.38,0,0,0-.74,1.16,3.81,3.81,0,0,0-.25,1,4.87,4.87,0,0,0,.12,1.7,3.54,3.54,0,0,0,.74,1.41,3.86,3.86,0,0,0,1.18.9,5.53,5.53,0,0,0,1.64.53,8.13,8.13,0,0,0,1.21.12,9.6,9.6,0,0,0,1.61-.07,6.46,6.46,0,0,0,1.44-.36,3.65,3.65,0,0,0,.54-.23,4.22,4.22,0,0,0,.8-.52l.4-.39a.19.19,0,0,0,.05-.14v-3s0-.06,0-.09H5.42v1.72H7.66v.13c0,.12,0,.24,0,.35a.23.23,0,0,1-.14.24,3,3,0,0,1-1.11.36,4.57,4.57,0,0,1-1.43,0,2.59,2.59,0,0,1-1.13-.48A1.63,1.63,0,0,1,3.3,17a2.32,2.32,0,0,1,0-1.64,1.61,1.61,0,0,1,.56-.77,2.62,2.62,0,0,1,.88-.41,5,5,0,0,1,.85-.11,4.57,4.57,0,0,1,1,.07,2.78,2.78,0,0,1,1,.39l.34.24c.09.06.09.07.18,0l.76-.57.88-.65ZM27,20V15.3c0-.32,0-.64,0-1H30c0-.21,0-2,0-2H21.21v2.05h3.05V20Zm6.71,0V12.29c-.16,0-2.61,0-2.69,0V20Zm10.48-7.33v3.78h1.59a1.25,1.25,0,0,0,.42-.08.62.62,0,0,0,.4-.46,2,2,0,0,0,0-.92.59.59,0,0,0-.4-.47l-.06,0,.11,0a.41.41,0,0,0,.23-.27,1.66,1.66,0,0,0,0-1,.62.62,0,0,0-.46-.44,2.2,2.2,0,0,0-.37,0H44.17Zm21.33,0V14s0,.08,0,.12L65,12.72h-.82v3.76a4.57,4.57,0,0,0,.91,0V15.14a.76.76,0,0,1,.09.18l.4,1.08c0,.07,0,.1.12.1s.43,0,.65,0l.09,0V12.71ZM38.66,14.08c0-.23,0-.46-.06-.67a.82.82,0,0,0-.54-.64,1.65,1.65,0,0,0-1.14,0,.92.92,0,0,0-.56.53,2.54,2.54,0,0,0-.13.77c0,.27,0,.54,0,.8s0,.33,0,.49a4.34,4.34,0,0,0,.08.52.73.73,0,0,0,.33.5,1.2,1.2,0,0,0,1.19,0l.06,0,.06.12a3.88,3.88,0,0,0,.7,0V14.29a8.44,8.44,0,0,0-1.24,0v.76h.31c0,.18,0,.34,0,.5a.19.19,0,0,1-.2.19.21.21,0,0,1-.24-.18.88.88,0,0,1,0-.17,10.6,10.6,0,0,1,0-1.38c0-.12,0-.24,0-.36a.18.18,0,0,1,.19-.16.19.19,0,0,1,.19.17c0,.08,0,.15,0,.23a.91.91,0,0,1,0,.17Zm18.16,2.41V15.06H57a.07.07,0,0,1,.07.06l.24,1,.09.35a6,6,0,0,0,1,0l0,0-.18-.62-.24-.88c0-.05,0-.09,0-.13a.62.62,0,0,0,.24-.37,2,2,0,0,0,0-1.15.8.8,0,0,0-.81-.56H55.89c0,.2,0,3.68,0,3.77Zm-1.34-2.41a4.62,4.62,0,0,0,0-.65.84.84,0,0,0-.66-.7,1.62,1.62,0,0,0-1,0,.91.91,0,0,0-.6.58,2.17,2.17,0,0,0-.1.62q0,.57,0,1.14a2.72,2.72,0,0,0,.11.85.74.74,0,0,0,.35.44,1,1,0,0,0,.48.14,1,1,0,0,0,.67-.14l.07,0,0,.11a3.17,3.17,0,0,0,.69,0V14.29c-.13,0-1.13,0-1.22,0v.78h.3v.14c0,.12,0,.25,0,.37a.19.19,0,0,1-.17.18.2.2,0,0,1-.24-.13.57.57,0,0,1,0-.14,11.36,11.36,0,0,1,0-1.65l0-.19a.17.17,0,0,1,.18-.14.18.18,0,0,1,.19.13l0,.22c0,.07,0,.15,0,.22Zm11.35,2.4.08,0h1.35a.92.92,0,0,0,.61-.24,1,1,0,0,0,.24-.51,3.48,3.48,0,0,0,.06-.85c0-.29,0-.57,0-.85a4.06,4.06,0,0,0-.08-.7.73.73,0,0,0-.62-.6l-.34,0H66.94l-.11,0Zm-5.78-1.93c0-.12,0-.25,0-.38a4.15,4.15,0,0,0-.07-.7.86.86,0,0,0-.65-.72,1.79,1.79,0,0,0-.89,0,.93.93,0,0,0-.75.65,2.11,2.11,0,0,0-.09.55c0,.36,0,.72,0,1.07a3.84,3.84,0,0,0,.06.76.93.93,0,0,0,.79.78,1.91,1.91,0,0,0,.92,0,.83.83,0,0,0,.43-.31,1.22,1.22,0,0,0,.19-.49A5.32,5.32,0,0,0,61.05,14.55Zm-19.72,0h0c0,.16,0,.33,0,.49a3.23,3.23,0,0,0,.07.69.87.87,0,0,0,.6.69,1.8,1.8,0,0,0,1.1,0,.79.79,0,0,0,.46-.36,1.53,1.53,0,0,0,.2-.72c0-.37,0-.74,0-1.11a5.24,5.24,0,0,0,0-.79.91.91,0,0,0-.68-.76,1.74,1.74,0,0,0-1,0,.9.9,0,0,0-.63.54,1.75,1.75,0,0,0-.12.56C41.34,14.08,41.34,14.34,41.33,14.6ZM61.4,12.72v1.35c0,.48,0,1,0,1.45a.93.93,0,0,0,.7,1,1.65,1.65,0,0,0,1,0,.91.91,0,0,0,.45-.28,1,1,0,0,0,.24-.66V12.83a.41.41,0,0,0,0-.11h-1v2.69a.55.55,0,0,1,0,.18c0,.09-.09.13-.2.13a.16.16,0,0,1-.18-.15.58.58,0,0,1,0-.19V12.72ZM49.47,16.49a.13.13,0,0,0,0-.06l-.15-1-.21-1.29-.21-1.37c0-.08,0-.09-.1-.09H47.6c-.08,0-.09,0-.11.1l-.06.37c-.09.56-.18,1.12-.28,1.67s-.17,1-.26,1.51a.49.49,0,0,0,0,.12l0,0h.85c.07,0,.08-.05.08-.1,0-.25.07-.49.1-.74l0-.08h.4l.12.91Zm2.37,0a4.6,4.6,0,0,0,0-.86h-1V13.45c0-.24,0-.48,0-.73h-1v3.77ZM39.06,12.72v3.76c.14,0,1.95,0,2,0v-.86H40v-2.9Zm3,7.6v-2.5h-.19v1.94a.08.08,0,0,1-.06-.05l-.3-.84-.36-1c0-.06,0-.08-.1-.08h-.16c0,.17,0,2.42,0,2.5h.17V18.51a.16.16,0,0,1,0-.13,3.59,3.59,0,0,1,.15.37c.18.48.35.95.52,1.43.06.16.06.16.23.15Zm17.44,0V17.82h-.19v1.56a1.16,1.16,0,0,1,0,.37c-.26-.64-.47-1.29-.72-1.93h-.23v2.5h.18v-1.8s0-.09,0-.13c.25.64.47,1.3.72,1.94Zm-4.08,0V18.37h0a.36.36,0,0,1,0,.09c0,.1.08.2.11.3l.31.81c.08.23.16.46.25.69a.2.2,0,0,0,.06.07.61.61,0,0,0,.19,0c0-.26,0-2.41,0-2.5h-.16v1.89s0,0,0,0h0l-.71-1.94h-.24v2.5Zm-8.07-2.5v2.5h.2v-.58a5.86,5.86,0,0,1,0-.59h.34c.1,0,.11,0,.14.1l.27.91c0,.18.06.19.25.17l0,0-.38-1.19.06,0a.42.42,0,0,0,.18-.25,1.42,1.42,0,0,0,0-.71.36.36,0,0,0-.35-.3C47.85,17.81,47.6,17.82,47.35,17.82ZM39,20.33v0c-.12-.36-.23-.72-.35-1.08a.11.11,0,0,1,0-.14.36.36,0,0,0,.17-.31,3,3,0,0,0,0-.52c0-.3-.16-.43-.47-.43h-.63c0,.14,0,2.43,0,2.51h.17c0-.39,0-.77,0-1.17h.41s.06,0,.08.07.08.25.11.38.15.48.22.72ZM53.46,19h0a2.09,2.09,0,0,0,0,.25,5.73,5.73,0,0,0,.07.58.5.5,0,0,0,.42.46.73.73,0,0,0,.36,0,.53.53,0,0,0,.42-.46,3.26,3.26,0,0,0,.08-1,3.68,3.68,0,0,0-.08-.58.61.61,0,0,0-.19-.34.5.5,0,0,0-.33-.12.62.62,0,0,0-.52.15.45.45,0,0,0-.16.32C53.51,18.52,53.49,18.78,53.46,19Zm-6.52,0a4.42,4.42,0,0,0,0-.49,2.46,2.46,0,0,0-.09-.39.5.5,0,0,0-.47-.35.61.61,0,0,0-.63.27,1,1,0,0,0-.11.39c0,.28,0,.56,0,.84a4.53,4.53,0,0,0,0,.53.63.63,0,0,0,.28.45.68.68,0,0,0,.38.07.53.53,0,0,0,.53-.39A3.12,3.12,0,0,0,46.94,19Zm18-1.21s0,.07,0,.1v1.9s0,.06,0,.1a.44.44,0,0,0,.34.4.9.9,0,0,0,.43,0,.46.46,0,0,0,.42-.45.34.34,0,0,0,0-.1V17.91a.28.28,0,0,0,0-.09h-.2v1.92a.76.76,0,0,1,0,.15.33.33,0,0,1-.26.26.66.66,0,0,1-.28,0,.29.29,0,0,1-.23-.25V18s0-.08,0-.13ZM40,17.81H39.9c-.13,0-.13,0-.16.13l-.3,1.26c-.08.35-.17.69-.25,1a.31.31,0,0,0,0,.1h.19a1.42,1.42,0,0,0,.05-.16c0-.12,0-.24.08-.35s0-.12.15-.12h.45c.12,0,.12,0,.15.12s0,0,0,.07.07.29.1.43h.22Zm3.66.69a.94.94,0,0,0-.1-.48.47.47,0,0,0-.2-.17.86.86,0,0,0-.63,0,.43.43,0,0,0-.28.33.7.7,0,0,0,0,.43,1,1,0,0,0,.34.38,4.73,4.73,0,0,1,.43.31.58.58,0,0,1,.22.53.35.35,0,0,1-.28.32.69.69,0,0,1-.2,0,.33.33,0,0,1-.34-.32,1.08,1.08,0,0,1,0-.19h-.2a1.27,1.27,0,0,0,0,.34.47.47,0,0,0,.35.34,1.14,1.14,0,0,0,.45,0,.48.48,0,0,0,.35-.25.8.8,0,0,0-.23-1c-.11-.09-.24-.17-.36-.25a1,1,0,0,1-.27-.23.52.52,0,0,1-.1-.42.24.24,0,0,1,.16-.19.53.53,0,0,1,.39,0,.32.32,0,0,1,.21.23c0,.08,0,.17.05.25h.19Zm6.87-.68-.61,2.5h.21l0-.1c0-.14.07-.28.1-.42s0-.1.13-.1h.49c.09,0,.1,0,.12.1a.09.09,0,0,1,0,.05c0,.16.07.31.11.47h.21l-.55-2.5Zm10.56.68a.87.87,0,0,0,0-.28.48.48,0,0,0-.3-.37.79.79,0,0,0-.62,0,.41.41,0,0,0-.22.21.68.68,0,0,0,.17.8c.15.12.32.23.47.34a.66.66,0,0,1,.33.61.33.33,0,0,1-.33.35c-.27,0-.47-.05-.5-.41a.44.44,0,0,0,0-.1H59.9a.8.8,0,0,0,0,.31.47.47,0,0,0,.36.37,1.09,1.09,0,0,0,.44,0,.46.46,0,0,0,.4-.38.77.77,0,0,0-.31-.87,3.78,3.78,0,0,0-.33-.22.8.8,0,0,1-.35-.4A.33.33,0,0,1,60.4,18h.15a.35.35,0,0,1,.35.33l0,.18Zm-16.79.82h.52a.41.41,0,0,0,.41-.35,2.26,2.26,0,0,0,0-.82.38.38,0,0,0-.34-.33h-.72l-.07,0v2.49h.2ZM68.2,18h.85v-.19H68v2.51h1v-.19h-.85a6.21,6.21,0,0,1,0-1h.63c.16,0,.17,0,.15-.17l0,0h-.39a2.54,2.54,0,0,1-.39,0ZM49.27,18v2.31h.21V18.94c0-.15,0-.31,0-.46s0-.3,0-.47H50v-.19a10,10,0,0,0-1.25,0V18Zm12.79,2.31V18.09a.07.07,0,0,1,.08-.08h.44v-.17a10.42,10.42,0,0,0-1.25,0V18c.17,0,.33,0,.51,0v2.29Zm1.87,0h.21V18.47c0-.15,0-.3,0-.46h.37c.16,0,.16,0,.15-.16s0,0,0,0H63.41V18h.52v2.3Zm3.23,0V18.1c0-.06,0-.09.09-.09h.43v-.19c-.16,0-1.15,0-1.25,0V18H67v2.3ZM36.69,18v2.31h.21V18.78c0-.25,0-.5,0-.77h.51v-.19H36.18V18Zm15.13,0v2.31H52V18h.5v-.19H51.3V18Zm5.8-.19v2.5h.2v-2.5Zm-4.56,2.5c0-.83,0-1.67,0-2.5h-.2v2.5Zm9.84-2.5v2.5h.19c0-.22,0-2.41,0-2.5ZM3.68,8.25c-.12,0-.14.1-.18.17a.45.45,0,0,0-.11.19A.8.8,0,0,0,3.68,8.25Z"/><path class="cls-2" d="M5.18,6.94l0,0a.12.12,0,0,0-.1.09l0,0a.08.08,0,0,0-.07.07l-.07,0a.08.08,0,0,0-.08.07l0,0a.08.08,0,0,0-.08.07l-.16.14s-.07,0-.07.07l-.09.08c-.07,0-.1.06-.13.11h0l-.09.1-.36.34s-.06.08-.1,0l.05-.07h0l0-.05,0,0L3.84,8l0,0,0,0L4,7.74l.06-.07.06-.07.06-.08,0,0,0-.05.27-.31A.08.08,0,0,0,4.61,7l.62-.67c.24-.25.49-.49.74-.72s.59-.49.88-.74.35-.27.53-.4.64-.42,1-.62l.9-.51.52-.25c.37-.15.73-.31,1.1-.45a12.36,12.36,0,0,1,1.46-.46A16.35,16.35,0,0,1,14,1.87a13.33,13.33,0,0,1,1.54-.13c.38,0,.75,0,1.13,0a10.2,10.2,0,0,1,1.34.1c.38.06.76.1,1.14.18A15.49,15.49,0,0,1,21,2.47c.39.13.78.28,1.16.43a14.81,14.81,0,0,1,1.5.73l1,.6a10.76,10.76,0,0,1,1.23.9c.3.25.6.52.89.78a10.41,10.41,0,0,1,1,1.07c.29.33.56.69.82,1a15.54,15.54,0,0,1,.9,1.38c.24.42.45.84.65,1.27,0,0,0,.08.05.13H26.68a.17.17,0,0,1-.17-.09c-.17-.26-.34-.52-.52-.77a10.64,10.64,0,0,0-.83-1c-.18-.22-.37-.44-.57-.64a16.26,16.26,0,0,0-2.5-2c-.26-.17-.52-.32-.78-.47a10.58,10.58,0,0,0-1.26-.63,13.5,13.5,0,0,0-2.91-.94c-.4-.08-.8-.14-1.2-.2a10.86,10.86,0,0,0-1.28-.1c-.3,0-.59,0-.89,0A17,17,0,0,0,12,4c-.46.07-.92.16-1.37.27a13,13,0,0,0-1.5.46c-.37.14-.73.28-1.08.44a14.45,14.45,0,0,0-1.4.75c-.33.2-.65.42-1,.63l0,0,0,0-.05,0h0s-.07,0-.08.06l0,0-.08.06-.11.08Z"/><path class="cls-3" d="M30.4,25.1c-.39.41-.8.81-1.23,1.18a15.67,15.67,0,0,1-1.38,1,11.51,11.51,0,0,1-1.21.74l-1.19.59c-.27.13-.55.23-.83.35a14.79,14.79,0,0,1-1.47.47,11.1,11.1,0,0,1-1.39.3L20.42,30a13.9,13.9,0,0,1-2,0,16.71,16.71,0,0,1-2.53-.34,15.24,15.24,0,0,1-1.6-.45,13.72,13.72,0,0,1-1.5-.59A11.5,11.5,0,0,1,11.54,28c-.34-.21-.68-.41-1-.63a11.5,11.5,0,0,1-1.13-.85c-.29-.24-.58-.49-.85-.75s-.42-.41-.62-.62a13.74,13.74,0,0,1-1.1-1.32,14.15,14.15,0,0,1-1.07-1.69c-.14-.25-.27-.5-.4-.76,0,0,0-.08-.05-.13H8.57a.15.15,0,0,1,.16.08l.59.88a13.67,13.67,0,0,0,1.2,1.44c.27.28.55.57.85.83s.65.55,1,.81a11.08,11.08,0,0,0,1.48,1c.38.21.76.42,1.15.6s.69.3,1,.43a11,11,0,0,0,1.34.43c.35.08.69.17,1,.23a13.85,13.85,0,0,0,1.44.2,12.29,12.29,0,0,0,1.82,0c.4,0,.79-.06,1.19-.1a11,11,0,0,0,1.7-.31c.42-.1.84-.23,1.26-.37a11.11,11.11,0,0,0,1.35-.53,13.73,13.73,0,0,0,1.6-.87c.37-.23.72-.48,1.07-.74s.49-.38.74-.58l.33-.29s0,0,.05-.05a.13.13,0,0,0,.1-.09h.09l0,.06-.08.09a.12.12,0,0,0-.09.1l0,0-.07.08-.14.16c-.05,0-.09,0-.09.1l-.13.14A.13.13,0,0,0,30.4,25.1Z"/><path class="cls-4" d="M20.51,13.42l-1.88,1.41-.14-.11a3.16,3.16,0,0,0-1.62-.64,4.5,4.5,0,0,0-1.37.07,2.42,2.42,0,0,0-.93.37,1.78,1.78,0,0,0-.75,1.26,2.69,2.69,0,0,0,0,.94,1.74,1.74,0,0,0,.64,1,2.53,2.53,0,0,0,1.12.47,4.35,4.35,0,0,0,1.44,0,2.65,2.65,0,0,0,1.18-.41s.06-.05.06-.08v-.59H16.07c0-.1,0-1.58,0-1.72h4.72a.37.37,0,0,1,0,.11v3a.24.24,0,0,1-.07.18,4.53,4.53,0,0,1-1.08.82,6.06,6.06,0,0,1-1.16.45,7.08,7.08,0,0,1-1.77.26,9,9,0,0,1-1.64-.07,5.49,5.49,0,0,1-1.2-.27,5.88,5.88,0,0,1-.73-.3A3.72,3.72,0,0,1,12,18.82a3.48,3.48,0,0,1-.75-1.27,4.4,4.4,0,0,1-.21-1.08,4.46,4.46,0,0,1,.31-2,3.52,3.52,0,0,1,.74-1.08,4.38,4.38,0,0,1,1.55-1,6.52,6.52,0,0,1,1.51-.36A9.44,9.44,0,0,1,16.84,12a7.17,7.17,0,0,1,1.89.35,5.82,5.82,0,0,1,1.56.82l.14.13Z"/><path class="cls-4" d="M9.88,13.42l-.15.12-.88.65-.76.57c-.09.07-.09.06-.18,0l-.34-.24a2.78,2.78,0,0,0-1-.39,4.57,4.57,0,0,0-1-.07,5,5,0,0,0-.85.11,2.62,2.62,0,0,0-.88.41,1.61,1.61,0,0,0-.56.77A2.32,2.32,0,0,0,3.3,17a1.63,1.63,0,0,0,.56.76A2.59,2.59,0,0,0,5,18.23a4.57,4.57,0,0,0,1.43,0,3,3,0,0,0,1.11-.36.23.23,0,0,0,.14-.24c0-.11,0-.23,0-.35v-.13H5.42V15.46h4.74s0,.06,0,.09v3a.19.19,0,0,1-.05.14l-.4.39a4.22,4.22,0,0,1-.8.52,3.65,3.65,0,0,1-.54.23,6.46,6.46,0,0,1-1.44.36,9.6,9.6,0,0,1-1.61.07,8.13,8.13,0,0,1-1.21-.12,5.53,5.53,0,0,1-1.64-.53,3.86,3.86,0,0,1-1.18-.9,3.54,3.54,0,0,1-.74-1.41,4.87,4.87,0,0,1-.12-1.7,3.81,3.81,0,0,1,.25-1,3.38,3.38,0,0,1,.74-1.16,4.18,4.18,0,0,1,1.54-1,6.85,6.85,0,0,1,1.95-.41,9.38,9.38,0,0,1,1.3,0,6.56,6.56,0,0,1,2.23.49,4.89,4.89,0,0,1,1.37.82Z"/><path class="cls-5" d="M11.77,22.94l.46.26.53.29c.31.15.61.29.92.42a12.27,12.27,0,0,0,2,.62,13.05,13.05,0,0,0,1.37.23,12.58,12.58,0,0,0,2.53,0A13.52,13.52,0,0,0,21,24.56a10.62,10.62,0,0,0,1.26-.34,10,10,0,0,0,1.28-.5A10,10,0,0,0,24.86,23c.3-.19.61-.39.9-.6s.68-.54,1-.83c.09-.09.18-.17.26-.26a.25.25,0,0,1,.16-.06h4.71c-.06.08-.1.15-.16.22-.26.33-.52.67-.8,1s-.46.48-.7.72a11.65,11.65,0,0,1-1.06.92,13.38,13.38,0,0,1-1.41.95,9.91,9.91,0,0,1-1.53.76c-.34.13-.67.27-1,.38a12.88,12.88,0,0,1-1.62.43,12.54,12.54,0,0,1-1.93.22,11.36,11.36,0,0,1-1.65,0,14.17,14.17,0,0,1-1.83-.27A15.13,15.13,0,0,1,16.53,26a13,13,0,0,1-2.07-1,10.11,10.11,0,0,1-1.11-.73l-.64-.49a.12.12,0,0,0-.11-.08l0,0-.1-.09,0,0-.17-.15-.07-.06a.23.23,0,0,0-.12-.12l-.05,0a.06.06,0,0,0-.07-.07L11.77,23Z"/><path class="cls-5" d="M23.45,9.09l-.59-.35-.52-.27A11.57,11.57,0,0,0,21,7.89c-.32-.11-.65-.2-1-.29a10.88,10.88,0,0,0-1.38-.28c-.41-.05-.83-.08-1.25-.11a7.85,7.85,0,0,0-.84,0q-.6,0-1.2.09l-.89.14-.83.2a12.65,12.65,0,0,0-1.57.54,13.19,13.19,0,0,0-1.25.62,11.44,11.44,0,0,0-1.43,1,13,13,0,0,0-1.12,1A.29.29,0,0,1,8,10.8H3.35l.2-.29c.24-.29.46-.59.71-.87s.53-.57.81-.84a13.09,13.09,0,0,1,1.6-1.29c.38-.26.78-.51,1.18-.73a14.44,14.44,0,0,1,1.38-.65c.36-.14.72-.26,1.09-.38A13.27,13.27,0,0,1,12,5.37a14.12,14.12,0,0,1,1.58-.17c.36,0,.72,0,1.07,0a11.41,11.41,0,0,1,1.75.18c.4.08.82.15,1.22.26s.9.28,1.35.44a12.27,12.27,0,0,1,1.9.91c.33.2.66.42,1,.64A12.25,12.25,0,0,1,23.41,9l.05,0Z"/><path class="cls-4" d="M27,20H24.26v-5.7H21.21V12.29H30c0,.08,0,1.83,0,2H27c0,.33,0,.65,0,1V20Z"/><path class="cls-6" d="M29.78,26.39l-.1.12s-.06,0-.07.07l0,0a.11.11,0,0,0-.1.1,9.66,9.66,0,0,1-.91.9c-.22.19-.43.38-.66.56a11.2,11.2,0,0,1-1.13.82c-.26.17-.52.34-.78.49s-.48.28-.72.4-.76.37-1.14.53-.56.23-.84.33-.8.26-1.21.37a14.76,14.76,0,0,1-2.37.44c-.45,0-.91.05-1.36.07a11.47,11.47,0,0,1-1.55,0,13.1,13.1,0,0,1-1.65-.23,15.67,15.67,0,0,1-1.64-.4,15.05,15.05,0,0,1-1.42-.51,16.46,16.46,0,0,1-1.84-.9,18.45,18.45,0,0,1-1.66-1.11A15.65,15.65,0,0,1,7.3,27.31a12.75,12.75,0,0,1-1.18-1.26c-.26-.33-.52-.65-.76-1A15.32,15.32,0,0,1,3.41,21.4l-.06-.16H4a.12.12,0,0,1,.12.07,14.16,14.16,0,0,0,1,1.83,15.66,15.66,0,0,0,1.29,1.74,11.14,11.14,0,0,0,.94,1c.29.28.59.56.89.82s.61.51.93.74.72.5,1.09.73a16.23,16.23,0,0,0,1.53.83,15.08,15.08,0,0,0,1.44.6c.34.13.68.22,1,.33a12.66,12.66,0,0,0,1.7.39,13.48,13.48,0,0,0,1.9.22,16.85,16.85,0,0,0,1.88,0c.47,0,.93-.09,1.39-.16s1-.17,1.42-.29a14.51,14.51,0,0,0,1.73-.55c.35-.13.68-.27,1-.43s.71-.36,1.06-.54l.63-.35a12.14,12.14,0,0,0,1.12-.75,11.19,11.19,0,0,0,1.33-1.15c.23-.22.47-.44.69-.67s.53-.59.78-.89c.12-.14.23-.29.34-.43l.32-.43,0,0h.1l0,0c-.05,0-.06.05-.06.1l0,.06a.27.27,0,0,0-.1.18l-.11.16,0,.06h0a.1.1,0,0,0-.06.1s0,0,0,0l0,.06a0,0,0,0,1,0,0l0,.06-.06.09,0,.05-.06.09a.14.14,0,0,0-.09.12l-.05.07,0,.05,0,0c-.06,0-.08.06-.09.12l0,0a.19.19,0,0,0-.11.15l0,0a.08.08,0,0,0-.07.08l-.06.07s-.06,0-.06.07l0,.05s-.06,0-.06.07l-.17.21c-.05,0-.07,0-.07.08l-.13.14Z"/><path class="cls-4" d="M33.69,20H31V12.3c.08,0,2.53,0,2.69,0Z"/><path class="cls-7" d="M6.35,5l-.16.15c-.05,0-.07,0-.08.07l-.45.41a.06.06,0,0,0-.07.07l-.36.36s-.05,0,0,0l-.11.11a.11.11,0,0,0-.09.1.69.69,0,0,1-.13.11l0,0s0,0,0-.07l0-.07,0,0,0-.07a.06.06,0,0,0,.06-.08c.2-.23.4-.47.61-.69s.43-.44.65-.66l.39-.36A12.58,12.58,0,0,1,7.8,3.51c.24-.18.49-.36.74-.52s.67-.42,1-.61.37-.21.56-.3c.36-.17.72-.34,1.09-.49s.54-.21.81-.31.61-.21.92-.29L14.09.71A13.41,13.41,0,0,1,16.36.43c.48,0,1,0,1.45,0a16.75,16.75,0,0,1,1.86.19,15.19,15.19,0,0,1,2.12.5c.43.14.85.29,1.27.46s.63.27.94.42.65.34,1,.52.4.23.6.36a10.44,10.44,0,0,1,1.1.78,8.43,8.43,0,0,1,.74.6c.34.3.66.6,1,.92a13.42,13.42,0,0,1,1.16,1.34,14.16,14.16,0,0,1,.84,1.19,14,14,0,0,1,.92,1.7l.45,1c0,.11.09.22.13.35a3.12,3.12,0,0,1-.43,0s0,0-.05-.07c-.16-.33-.32-.66-.49-1a12,12,0,0,0-.71-1.21c-.21-.3-.4-.61-.62-.89S29,6.94,28.73,6.6s-.6-.65-.92-1a11.16,11.16,0,0,0-1.22-1.06q-.53-.39-1.05-.75A6,6,0,0,0,25,3.49l-.75-.42a9.67,9.67,0,0,0-1.12-.55c-.43-.17-.86-.35-1.29-.5s-.65-.2-1-.29-.85-.22-1.28-.3a15.25,15.25,0,0,0-2-.24q-.79,0-1.59,0c-.39,0-.78.06-1.17.1a10.69,10.69,0,0,0-1.6.27c-.52.13-1,.27-1.54.43s-.81.29-1.2.46a19,19,0,0,0-1.8.91l-.56.34,0,0h0L8,3.79l-.07,0a.08.08,0,0,0-.08.06s0,0,0,0A.14.14,0,0,0,7.71,4L7.62,4l0,0h0l0,0,0,0,0,0h0l0,0h0a.1.1,0,0,0-.1.09h0l-.05,0h0s-.07,0-.08.06l0,0,0,0-.14.1a.08.08,0,0,0-.08.07l-.18.15a.07.07,0,0,0-.08.06L6.4,5Z"/><path class="cls-8" d="M44.17,12.71h1.51a2.2,2.2,0,0,1,.37,0,.62.62,0,0,1,.46.44,1.66,1.66,0,0,1,0,1,.41.41,0,0,1-.23.27l-.11,0,.06,0a.59.59,0,0,1,.4.47,2,2,0,0,1,0,.92.62.62,0,0,1-.4.46,1.25,1.25,0,0,1-.42.08H44.17Zm1,2.26a3.24,3.24,0,0,0,0,.78h.27c.1,0,.15,0,.16-.14s0-.35,0-.52a.12.12,0,0,0-.13-.12Zm0-1.5v.79h.28a.13.13,0,0,0,.13-.13,1.57,1.57,0,0,0,0-.53c0-.08,0-.12-.15-.13Z"/><path class="cls-9" d="M65.5,12.72h.92v3.77l-.09,0c-.22,0-.43,0-.65,0s-.1,0-.12-.1l-.4-1.08a.76.76,0,0,0-.09-.18v1.33a4.57,4.57,0,0,1-.91,0V12.72H65l.49,1.35s0-.08,0-.12V12.72Z"/><path class="cls-6" d="M38.66,14.08h-1a.91.91,0,0,0,0-.17c0-.08,0-.15,0-.23a.19.19,0,0,0-.19-.17.18.18,0,0,0-.19.16c0,.12,0,.24,0,.36a10.6,10.6,0,0,0,0,1.38.88.88,0,0,0,0,.17.21.21,0,0,0,.24.18.19.19,0,0,0,.2-.19c0-.16,0-.32,0-.5h-.31V14.3a8.44,8.44,0,0,1,1.24,0v2.19a3.88,3.88,0,0,1-.7,0l-.06-.12-.06,0a1.2,1.2,0,0,1-1.19,0,.73.73,0,0,1-.33-.5,4.34,4.34,0,0,1-.08-.52c0-.16,0-.32,0-.49s0-.53,0-.8a2.54,2.54,0,0,1,.13-.77.92.92,0,0,1,.56-.53,1.65,1.65,0,0,1,1.14,0,.82.82,0,0,1,.54.64C38.64,13.62,38.64,13.85,38.66,14.08Z"/><path class="cls-6" d="M56.82,16.49H55.9c0-.09,0-3.57,0-3.77h1.46a.8.8,0,0,1,.81.56,2,2,0,0,1,0,1.15.62.62,0,0,1-.24.37s0,.08,0,.13l.24.88.18.62,0,0a6,6,0,0,1-1,0l-.09-.35-.24-1a.07.07,0,0,0-.07-.06h-.13Zm0-2.92v.71h.27a.17.17,0,0,0,.15-.13,1,1,0,0,0,0-.42.18.18,0,0,0-.16-.16Z"/><path class="cls-6" d="M55.48,14.08h-.95c0-.07,0-.15,0-.22l0-.22a.18.18,0,0,0-.19-.13.17.17,0,0,0-.18.14l0,.19a11.36,11.36,0,0,0,0,1.65.57.57,0,0,0,0,.14.2.2,0,0,0,.24.13.19.19,0,0,0,.17-.18c0-.12,0-.25,0-.37v-.14h-.3v-.78c.09,0,1.09,0,1.22,0v2.19a3.17,3.17,0,0,1-.69,0l0-.11-.07,0a1,1,0,0,1-.67.14,1,1,0,0,1-.48-.14.74.74,0,0,1-.35-.44,2.72,2.72,0,0,1-.11-.85q0-.57,0-1.14a2.17,2.17,0,0,1,.1-.62.91.91,0,0,1,.6-.58,1.62,1.62,0,0,1,1,0,.84.84,0,0,1,.66.7A4.62,4.62,0,0,1,55.48,14.08Z"/><path class="cls-6" d="M66.83,16.48V12.73l.11,0h1.19l.34,0a.73.73,0,0,1,.62.6,4.06,4.06,0,0,1,.08.7c0,.28,0,.56,0,.85a3.48,3.48,0,0,1-.06.85,1,1,0,0,1-.24.51.92.92,0,0,1-.61.24H66.91Zm1-.71H68a.19.19,0,0,0,.2-.18c0-.14,0-.29,0-.44v-.41c0-.32,0-.63,0-.94s-.11-.31-.37-.3l0,0Z"/><path class="cls-6" d="M61.05,14.55A5.32,5.32,0,0,1,61,15.68a1.22,1.22,0,0,1-.19.49.83.83,0,0,1-.43.31,1.91,1.91,0,0,1-.92,0,.93.93,0,0,1-.79-.78,3.84,3.84,0,0,1-.06-.76c0-.35,0-.71,0-1.07a2.11,2.11,0,0,1,.09-.55.93.93,0,0,1,.75-.65,1.79,1.79,0,0,1,.89,0,.86.86,0,0,1,.65.72,4.15,4.15,0,0,1,.07.7C61.06,14.3,61.05,14.43,61.05,14.55Zm-1,0h0c0-.18,0-.36,0-.55a2.38,2.38,0,0,0-.06-.37c0-.08-.06-.13-.19-.13a.18.18,0,0,0-.19.13.71.71,0,0,0,0,.2,10.59,10.59,0,0,0,0,1.49.83.83,0,0,0,0,.22.2.2,0,0,0,.4,0,.59.59,0,0,0,0-.14C60.06,15.13,60.07,14.85,60.09,14.56Z"/><path class="cls-6" d="M41.33,14.6c0-.26,0-.52,0-.77a1.75,1.75,0,0,1,.12-.56.9.9,0,0,1,.63-.54,1.74,1.74,0,0,1,1,0,.91.91,0,0,1,.68.76,5.24,5.24,0,0,1,0,.79c0,.37,0,.74,0,1.11a1.53,1.53,0,0,1-.2.72.79.79,0,0,1-.46.36,1.8,1.8,0,0,1-1.1,0,.87.87,0,0,1-.6-.69,3.23,3.23,0,0,1-.07-.69c0-.16,0-.33,0-.49Zm1,0h0c0,.22,0,.43,0,.65a1.86,1.86,0,0,0,0,.33.17.17,0,0,0,.09.14.2.2,0,0,0,.3-.12,2.17,2.17,0,0,0,0-.25,10.44,10.44,0,0,0,0-1.25,1.75,1.75,0,0,0,0-.4.17.17,0,0,0-.2-.16.18.18,0,0,0-.2.15.58.58,0,0,0,0,.14Z"/><path class="cls-7" d="M61.4,12.72h1v2.66a.58.58,0,0,0,0,.19.16.16,0,0,0,.18.15c.11,0,.18,0,.2-.13a.55.55,0,0,0,0-.18V12.72h1a.41.41,0,0,1,0,.11v2.71a1,1,0,0,1-.24.66.91.91,0,0,1-.45.28,1.65,1.65,0,0,1-1,0,.93.93,0,0,1-.7-1c0-.48,0-1,0-1.45V12.72Z"/><path class="cls-6" d="M49.47,16.49h-1l-.12-.91H48l0,.08c0,.25-.07.49-.1.74,0,.05,0,.1-.08.1h-.85l0,0a.49.49,0,0,1,0-.12c.09-.51.18-1,.26-1.51s.19-1.11.28-1.67l.06-.37c0-.09,0-.1.11-.1h1.21c.09,0,.09,0,.1.09l.21,1.37.21,1.29.15,1A.13.13,0,0,1,49.47,16.49ZM48.18,14h0l-.12.83h.25Z"/><path class="cls-7" d="M51.84,16.49H49.79V12.72h1c0,.25,0,.49,0,.73v2.17h1A4.6,4.6,0,0,1,51.84,16.49Z"/><path class="cls-10" d="M39.06,12.72h1v2.9H41.1v.86c-.09,0-1.9,0-2,0Z"/><path class="cls-11" d="M42.06,20.32H42c-.17,0-.17,0-.23-.15-.17-.48-.34-.95-.52-1.43a3.59,3.59,0,0,0-.15-.37.16.16,0,0,0,0,.13v1.81H40.9c0-.08,0-2.33,0-2.5h.16c.05,0,.08,0,.1.08l.36,1,.3.84a.08.08,0,0,0,.06.05V17.82h.19Z"/><path class="cls-12" d="M59.5,20.33h-.23c-.25-.64-.47-1.3-.72-1.94-.06,0,0,.09,0,.13v1.8h-.18v-2.5h.23c.25.64.46,1.29.72,1.93a1.16,1.16,0,0,0,0-.37V17.82h.19Z"/><path class="cls-13" d="M55.42,20.32h-.18v-2.5h.24l.71,1.94h0s0,0,0,0V17.82h.16c0,.09,0,2.24,0,2.5a.61.61,0,0,1-.19,0,.2.2,0,0,1-.06-.07c-.09-.23-.17-.46-.25-.69l-.31-.81c0-.1-.07-.2-.11-.3a.36.36,0,0,0,0-.09h0v1.95Z"/><path class="cls-14" d="M47.35,17.82c.25,0,.5,0,.74,0a.36.36,0,0,1,.35.3,1.42,1.42,0,0,1,0,.71.42.42,0,0,1-.18.25l-.06,0,.38,1.19,0,0c-.19,0-.2,0-.25-.17L48,19.25c0-.09,0-.1-.14-.1h-.34a5.86,5.86,0,0,0,0,.59v.58h-.2Zm.2,1.12,0,0c.14,0,.27,0,.41,0a.24.24,0,0,0,.28-.25,3.38,3.38,0,0,0,0-.45A.25.25,0,0,0,48,18c-.11,0-.23,0-.34,0h-.09Z"/><path class="cls-12" d="M39,20.33h-.23c-.07-.24-.14-.48-.22-.72s-.07-.25-.11-.38,0-.07-.08-.07h-.41c0,.4,0,.78,0,1.17h-.17c0-.08,0-2.37,0-2.51h.63c.31,0,.43.13.47.43a3,3,0,0,1,0,.52.36.36,0,0,1-.17.31.11.11,0,0,0,0,.14c.12.36.23.72.35,1.08ZM38,18A5.92,5.92,0,0,0,38,19h.45a.21.21,0,0,0,.24-.21,4.34,4.34,0,0,0,0-.51.24.24,0,0,0-.2-.22A2.77,2.77,0,0,0,38,18Z"/><path class="cls-12" d="M53.46,19c0-.26,0-.52.09-.77a.45.45,0,0,1,.16-.32.62.62,0,0,1,.52-.15.5.5,0,0,1,.33.12.61.61,0,0,1,.19.34,3.68,3.68,0,0,1,.08.58,3.26,3.26,0,0,1-.08,1,.53.53,0,0,1-.42.46.73.73,0,0,1-.36,0,.5.5,0,0,1-.42-.46,5.73,5.73,0,0,1-.07-.58,2.09,2.09,0,0,1,0-.25Zm.23,0a2.62,2.62,0,0,0,0,.28c0,.18.05.36.09.54a.33.33,0,0,0,.26.25.38.38,0,0,0,.5-.3,2.93,2.93,0,0,0,.07-.93c0-.21,0-.42-.07-.63a.35.35,0,0,0-.35-.29.38.38,0,0,0-.44.33A3.17,3.17,0,0,0,53.69,19.07Z"/><path class="cls-14" d="M46.94,19a3.12,3.12,0,0,1-.11.93.53.53,0,0,1-.53.39.68.68,0,0,1-.38-.07.63.63,0,0,1-.28-.45,4.53,4.53,0,0,1,0-.53c0-.28,0-.56,0-.84a1,1,0,0,1,.11-.39.61.61,0,0,1,.63-.27.5.5,0,0,1,.47.35,2.46,2.46,0,0,1,.09.39A4.42,4.42,0,0,1,46.94,19ZM45.8,19v.27a2,2,0,0,0,.11.64.4.4,0,0,0,.62.12.62.62,0,0,0,.15-.33,4.36,4.36,0,0,0,0-1.25,1.29,1.29,0,0,0-.08-.28A.25.25,0,0,0,46.4,18a.57.57,0,0,0-.26,0,.29.29,0,0,0-.25.22c0,.05,0,.1,0,.15A2.94,2.94,0,0,0,45.8,19Z"/><path class="cls-14" d="M65,17.82h.2c0,.05,0,.09,0,.13v1.94a.29.29,0,0,0,.23.25.66.66,0,0,0,.28,0,.33.33,0,0,0,.26-.26.76.76,0,0,0,0-.15V17.82h.2a.28.28,0,0,1,0,.09v1.88a.34.34,0,0,1,0,.1.46.46,0,0,1-.42.45.9.9,0,0,1-.43,0,.44.44,0,0,1-.34-.4s0-.07,0-.1v-1.9S65,17.86,65,17.82Z"/><path class="cls-12" d="M40,17.81l.56,2.51h-.22c0-.14-.06-.29-.1-.43s0-.05,0-.07,0-.12-.15-.12h-.45c-.12,0-.12,0-.15.12s0,.23-.08.35a1.42,1.42,0,0,1-.05.16h-.19a.31.31,0,0,1,0-.1c.08-.34.17-.68.25-1l.3-1.26c0-.13,0-.13.16-.13Zm-.13.36h0l-.31,1.32a2,2,0,0,0,.6,0Z"/><path class="cls-12" d="M43.68,18.5h-.19c0-.08,0-.17-.05-.25a.32.32,0,0,0-.21-.23.53.53,0,0,0-.39,0,.24.24,0,0,0-.16.19.52.52,0,0,0,.1.42,1,1,0,0,0,.27.23c.12.08.25.16.36.25a.8.8,0,0,1,.23,1,.48.48,0,0,1-.35.25,1.14,1.14,0,0,1-.45,0,.47.47,0,0,1-.35-.34,1.27,1.27,0,0,1,0-.34h.2a1.08,1.08,0,0,0,0,.19.33.33,0,0,0,.34.32.69.69,0,0,0,.2,0,.35.35,0,0,0,.28-.32.58.58,0,0,0-.22-.53,4.73,4.73,0,0,0-.43-.31,1,1,0,0,1-.34-.38.7.7,0,0,1,0-.43.43.43,0,0,1,.28-.33.86.86,0,0,1,.63,0,.47.47,0,0,1,.2.17A.94.94,0,0,1,43.68,18.5Z"/><path class="cls-12" d="M50.55,17.82h.25l.55,2.5h-.21c0-.16-.07-.31-.11-.47a.09.09,0,0,0,0-.05c0-.09,0-.1-.12-.1h-.49c-.1,0-.11,0-.13.1s-.07.28-.1.42l0,.1h-.21ZM51,19.5l-.28-1.32h0l-.3,1.32Z"/><path class="cls-12" d="M61.11,18.5h-.19l0-.18a.35.35,0,0,0-.35-.33H60.4a.33.33,0,0,0-.27.47.8.8,0,0,0,.35.4,3.78,3.78,0,0,1,.33.22.77.77,0,0,1,.31.87.46.46,0,0,1-.4.38,1.09,1.09,0,0,1-.44,0,.47.47,0,0,1-.36-.37.8.8,0,0,1,0-.31h.18a.44.44,0,0,1,0,.1c0,.36.23.43.5.41a.33.33,0,0,0,.33-.35.66.66,0,0,0-.33-.61c-.15-.11-.32-.22-.47-.34a.68.68,0,0,1-.17-.8.41.41,0,0,1,.22-.21.79.79,0,0,1,.62,0,.48.48,0,0,1,.3.37A.87.87,0,0,1,61.11,18.5Z"/><path class="cls-12" d="M44.32,19.32v1h-.2V17.83l.07,0h.72a.38.38,0,0,1,.34.33,2.26,2.26,0,0,1,0,.82.41.41,0,0,1-.41.35h-.52Zm0-.2a3.25,3.25,0,0,0,.54,0,.22.22,0,0,0,.18-.18,1.84,1.84,0,0,0,0-.74.2.2,0,0,0-.16-.16,2.51,2.51,0,0,0-.55,0Z"/><path class="cls-14" d="M68.2,18V19a2.54,2.54,0,0,0,.39,0H69l0,0c0,.17,0,.17-.15.17h-.63a6.21,6.21,0,0,0,0,1h.85v.19H68V17.82h1V18Z"/><path class="cls-11" d="M49.27,18h-.52v-.17a10,10,0,0,1,1.25,0V18h-.5c0,.17,0,.32,0,.47s0,.31,0,.46v1.38h-.21Z"/><path class="cls-11" d="M62.06,20.32h-.21V18c-.18,0-.34,0-.51,0v-.18a10.42,10.42,0,0,1,1.25,0V18h-.44a.07.07,0,0,0-.08.08v2.23Z"/><path class="cls-15" d="M63.93,20.32V18h-.52v-.19h1.23s0,0,0,0,0,.16-.15.16h-.37c0,.16,0,.31,0,.46v1.85Z"/><path class="cls-14" d="M67.16,20.32H67V18h-.51v-.19c.1,0,1.09,0,1.25,0V18h-.43c-.07,0-.09,0-.09.09v2.22Z"/><path class="cls-16" d="M36.69,18h-.51v-.19h1.24V18h-.51c0,.27,0,.52,0,.77v1.54h-.21Z"/><path class="cls-16" d="M51.82,18H51.3v-.19h1.24V18H52v2.3h-.22Z"/><path class="cls-11" d="M57.62,17.82h.2v2.5h-.2Z"/><path class="cls-11" d="M53.06,20.32h-.2v-2.5h.2C53.07,18.65,53.06,19.49,53.06,20.32Z"/><path class="cls-16" d="M62.9,17.82h.18c0,.09,0,2.28,0,2.5H62.9Z"/><path class="cls-17" d="M4.34,7.05l.41-.58,0,0h0s0,0,0,.05l0,.06-.45.54Z"/><path class="cls-18" d="M31.51,23.88l-.32.43-.07,0,0-.06h0l.05,0,.2-.24a.07.07,0,0,0,0-.05h0v0l.06-.06Z"/><path class="cls-17" d="M31.63,23.86h-.1l.08-.1h0v0a.86.86,0,0,1,.26-.34A2.42,2.42,0,0,1,31.63,23.86Z"/><path class="cls-19" d="M3.68,8.25a.8.8,0,0,1-.29.36.45.45,0,0,1,.11-.19C3.54,8.35,3.56,8.27,3.68,8.25Z"/><path class="cls-19" d="M31.4,23.9a.07.07,0,0,1,0,.05l-.2.24,0-.06A.66.66,0,0,1,31.4,23.9Z"/><path class="cls-19" d="M4.34,7.05l0,0-.21.26h0A.8.8,0,0,1,4.34,7.05Z"/><path class="cls-19" d="M23.45,9.09V9c.09,0,.12.11.17.18A.28.28,0,0,1,23.45,9.09Z"/><path class="cls-19" d="M11.77,22.94V23a.67.67,0,0,1-.2-.18C11.67,22.84,11.74,22.86,11.77,22.94Z"/><path class="cls-19" d="M12.25,23.46l.17.15A.28.28,0,0,1,12.25,23.46Z"/><path class="cls-17" d="M31.41,24.22a.27.27,0,0,1,.1-.18Z"/><path class="cls-17" d="M30.5,25.53a.19.19,0,0,1,.11-.15Z"/><path class="cls-19" d="M12.06,23.28a.23.23,0,0,1,.12.12A.16.16,0,0,1,12.06,23.28Z"/><path class="cls-19" d="M4.2,7.78s.06-.1.13-.11A.18.18,0,0,1,4.2,7.78Z"/><path class="cls-17" d="M7.71,4a.14.14,0,0,1,.12-.09Z"/><path class="cls-17" d="M30.85,25.05a.14.14,0,0,1,.09-.12Z"/><path class="cls-17" d="M30.64,25.34c0-.06,0-.11.09-.12Z"/><path class="cls-19" d="M4.11,7.88l.09-.1A.11.11,0,0,1,4.11,7.88Z"/><path class="cls-17" d="M29.49,26.7a.11.11,0,0,1,.1-.1A.14.14,0,0,1,29.49,26.7Z"/><path class="cls-19" d="M31.05,24.24a.13.13,0,0,1-.1.09Z"/><path class="cls-17" d="M7.21,4.34a.1.1,0,0,1,.1-.09Z"/><path class="cls-19" d="M12.46,23.64l.1.09C12.51,23.73,12.48,23.69,12.46,23.64Z"/><path class="cls-19" d="M31,24.48a.12.12,0,0,1,.09-.1C31,24.43,31,24.46,31,24.48Z"/><path class="cls-19" d="M30.62,24.86c0-.05,0-.08.09-.1Z"/><path class="cls-19" d="M12.6,23.77a.12.12,0,0,1,.11.08A.13.13,0,0,1,12.6,23.77Z"/><path class="cls-19" d="M30.4,25.1a.13.13,0,0,1,.09-.1A.11.11,0,0,1,30.4,25.1Z"/><path class="cls-17" d="M5,6.33a.11.11,0,0,1,.09-.1Z"/><path class="cls-19" d="M5,7.06A.12.12,0,0,1,5.14,7S5.09,7.06,5,7.06Z"/><path class="cls-17" d="M31.55,24c0-.05,0-.09.06-.1Z"/><path class="cls-17" d="M31.19,24.55a.1.1,0,0,1,.06-.1Z"/><path class="cls-19" d="M31.14,24.23h-.08l.07-.07Z"/><path class="cls-17" d="M6.11,5.23c0-.05,0-.07.08-.07Z"/><path class="cls-17" d="M30.4,25.65a.08.08,0,0,1,.07-.08Z"/><path class="cls-19" d="M4.42,7.59s0-.06.07-.07Z"/><path class="cls-17" d="M5.08,6.08A.06.06,0,0,1,5,6.16Z"/><path class="cls-19" d="M4.2,7.52l-.06.08S4.16,7.53,4.2,7.52Z"/><path class="cls-17" d="M5.59,5.71a.06.06,0,0,1,.07-.07Z"/><path class="cls-19" d="M4.65,7.38a.08.08,0,0,1,.08-.07Z"/><path class="cls-17" d="M6.47,4.91a.07.07,0,0,1,.08-.06Z"/><path class="cls-17" d="M6.73,4.7a.08.08,0,0,1,.08-.07Z"/><path class="cls-19" d="M4.77,7.28a.08.08,0,0,1,.08-.07A.08.08,0,0,1,4.77,7.28Z"/><path class="cls-17" d="M7,4.46s0-.07.08-.06Z"/><path class="cls-19" d="M4.92,7.16A.08.08,0,0,1,5,7.09S5,7.16,4.92,7.16Z"/><path class="cls-19" d="M4.61,7a.08.08,0,0,1-.07.08Z"/><path class="cls-19" d="M30.85,24.6l.07-.08C30.92,24.57,30.9,24.59,30.85,24.6Z"/><path class="cls-19" d="M5.34,6.82l.08-.06A.07.07,0,0,1,5.34,6.82Z"/><path class="cls-19" d="M5.47,6.73s0-.07.08-.06Z"/><path class="cls-17" d="M7.85,3.88a.08.08,0,0,1,.08-.06Z"/><path class="cls-19" d="M11.94,23.17a.06.06,0,0,1,.07.07Z"/><path class="cls-17" d="M30.28,25.79s0-.07.06-.07Z"/><path class="cls-17" d="M30.19,25.91s0-.07.06-.07Z"/><path class="cls-17" d="M30,26.2c0-.05,0-.07.07-.08Z"/><path class="cls-19" d="M3.84,8l-.06.08A.08.08,0,0,1,3.84,8Z"/><path class="cls-17" d="M29.61,26.58s0-.07.07-.07Z"/><path class="cls-19" d="M4.08,7.67,4,7.74S4,7.68,4.08,7.67Z"/><path class="cls-17" d="M4.87,6.35s0,.06,0,.07Z"/><path class="cls-19" d="M3.7,8.16l-.05.07Z"/><path class="cls-3" d="M31.14,24.23v-.07l0,0,0,.06Z"/><path class="cls-17" d="M5,6.23l0,0Z"/><path class="cls-17" d="M5.19,6.12s0,0,0,0Z"/><path class="cls-17" d="M7,4.53l0,0Z"/><path class="cls-17" d="M7.14,4.39l.05,0Z"/><path class="cls-17" d="M7.33,4.25l0,0Z"/><path class="cls-17" d="M7.4,4.19l0,0Z"/><path class="cls-17" d="M7.5,4.13l0,0Z"/><path class="cls-17" d="M7.57,4.08l0,0Z"/><path class="cls-17" d="M8,3.79l.05,0Z"/><path class="cls-17" d="M8.07,3.74l0,0Z"/><path class="cls-17" d="M31.1,24.7l0-.06Z"/><path class="cls-17" d="M6.35,5,6.4,5Z"/><path class="cls-19" d="M3.92,7.88l0,0Z"/><path class="cls-19" d="M5.18,6.94l.05,0Z"/><path class="cls-17" d="M30.76,25.17l0-.05Z"/><path class="cls-19" d="M5.56,6.66l.05,0Z"/><path class="cls-19" d="M5.66,6.59l0,0Z"/><path class="cls-17" d="M31.26,24.44l0-.06Z"/><path class="cls-19" d="M4.27,7.43l0,.05Z"/><path class="cls-19" d="M3.75,8.1l0,.05Z"/><path class="cls-17" d="M29.78,26.39l0-.05Z"/><path class="cls-17" d="M31.15,24.63l0-.06Z"/><path class="cls-17" d="M31,24.84l0-.05Z"/><path class="cls-19" d="M31.4,23.87v0Z"/><path class="cls-20" d="M45.14,15h.31a.12.12,0,0,1,.13.12c0,.17,0,.35,0,.52s-.06.13-.16.14h-.27A3.24,3.24,0,0,1,45.14,15Z"/><path class="cls-21" d="M45.13,13.47h.26c.1,0,.14,0,.15.13a1.57,1.57,0,0,1,0,.53.13.13,0,0,1-.13.13h-.28Z"/><path class="cls-22" d="M56.83,13.57h.26a.18.18,0,0,1,.16.16,1,1,0,0,1,0,.42.17.17,0,0,1-.15.13h-.27Z"/><path class="cls-21" d="M67.8,15.77V13.52l0,0c.26,0,.34,0,.37.3s0,.62,0,.94v.41c0,.15,0,.3,0,.44a.19.19,0,0,1-.2.18Z"/><path class="cls-22" d="M60.09,14.56c0,.29,0,.57-.05.86a.59.59,0,0,1,0,.14.2.2,0,0,1-.4,0,.83.83,0,0,1,0-.22,10.59,10.59,0,0,1,0-1.49.71.71,0,0,1,0-.2.18.18,0,0,1,.19-.13c.13,0,.18.05.19.13a2.38,2.38,0,0,1,.06.37c0,.19,0,.37,0,.55Z"/><path class="cls-21" d="M42.31,14.57l0-.77a.58.58,0,0,1,0-.14.18.18,0,0,1,.2-.15.17.17,0,0,1,.2.16,1.75,1.75,0,0,1,0,.4,10.44,10.44,0,0,1,0,1.25,2.17,2.17,0,0,1,0,.25.2.2,0,0,1-.3.12.17.17,0,0,1-.09-.14,1.86,1.86,0,0,1,0-.33c0-.22,0-.43,0-.65Z"/><path class="cls-18" d="M48.18,14l.12.84h-.25l.12-.83Z"/><path class="cls-21" d="M47.55,18.94V18h.09c.11,0,.23,0,.34,0a.25.25,0,0,1,.27.25,3.38,3.38,0,0,1,0,.45A.24.24,0,0,1,48,19c-.14,0-.27,0-.41,0Z"/><path class="cls-20" d="M38,18a2.77,2.77,0,0,1,.5,0,.24.24,0,0,1,.2.22,4.34,4.34,0,0,1,0,.51.21.21,0,0,1-.24.21H38A5.92,5.92,0,0,1,38,18Z"/><path class="cls-20" d="M53.69,19.07a3.17,3.17,0,0,1,.06-.75.38.38,0,0,1,.44-.33.35.35,0,0,1,.35.29c0,.21.06.42.07.63a2.93,2.93,0,0,1-.07.93.38.38,0,0,1-.5.3.33.33,0,0,1-.26-.25c0-.18-.06-.36-.09-.54A2.62,2.62,0,0,1,53.69,19.07Z"/><path class="cls-20" d="M45.8,19a2.94,2.94,0,0,1,.05-.65c0-.05,0-.1,0-.15a.29.29,0,0,1,.25-.22.57.57,0,0,1,.26,0,.25.25,0,0,1,.21.18,1.29,1.29,0,0,1,.08.28,4.36,4.36,0,0,1,0,1.25.62.62,0,0,1-.15.33.4.4,0,0,1-.62-.12,2,2,0,0,1-.11-.64Z"/><path class="cls-18" d="M39.89,18.17l.28,1.32a2,2,0,0,1-.6,0l.31-1.32Z"/><path class="cls-18" d="M51,19.5h-.6l.3-1.32h0Z"/><path class="cls-20" d="M44.32,19.12V18a2.51,2.51,0,0,1,.55,0,.2.2,0,0,1,.16.16,1.84,1.84,0,0,1,0,.74.22.22,0,0,1-.18.18A3.25,3.25,0,0,1,44.32,19.12Z"/><path class="cls-6" d="M31.61,23.75v0h0Z"/></g></g></svg>