<?xml version="1.0" encoding="utf-8"?>
<!-- Generator: Adobe Illustrator 21.1.0, SVG Export Plug-In . SVG Version: 6.00 Build 0)  -->
<svg version="1.1" baseProfile="tiny" id="Layer_1" xmlns="http://www.w3.org/2000/svg" xmlns:xlink="http://www.w3.org/1999/xlink"
	 x="0px" y="0px" viewBox="0 0 519 149.974" xml:space="preserve">
<g>
	<path d="M2.078,107.929H47.74V31.652l36.582,63.304c0,0,9.599,16.345,42.549,14.269c32.949-2.076,36.582-13.751,36.582-22.831
		s0-83.8,0-83.8h-44.884v77.314L84.062,18.421c0,0-7.005-16.864-40.473-16.864S2.337,16.345,2.337,21.793
		S2.078,107.669,2.078,107.929z"/>
	<path d="M317.821,107.669h50.073l49.035-71.866l48.516,72.125h49.813L453.77,17.642c0,0-9.081-17.642-36.322-17.642
		c-27.501,0-35.025,13.751-37.36,17.123S317.821,107.669,317.821,107.669z"/>
	<g>
		<path d="M2.446,117.29c0-2.611,1.105-3.688,3.451-3.688c1.139,0,2.145,0.5,2.748,1.652l9.617,17.782h0.067v-16.4
			c0-2.035,1.005-3.034,2.647-3.034s2.647,0.999,2.647,3.034v21.7c0,2.496-0.938,3.917-3.25,3.917c-1.742,0-2.312-0.422-3.016-1.689
			l-9.55-17.283H7.74v15.938c0,2.036-1.005,3.034-2.647,3.034s-2.647-0.998-2.647-3.034C2.446,139.219,2.446,117.29,2.446,117.29z"
			/>
		<path d="M44.267,136.34c0,2.343,0.503,2.88,0.503,3.764c0,1.268-1.039,2.15-2.212,2.15c-2.111,0-2.814-1.536-2.881-3.265
			c-1.91,2.42-4.122,3.265-6.702,3.265c-2.781,0-5.529-2.188-5.529-5.723c0-4.646,3.083-5.952,6.835-6.452l2.982-0.384
			c1.173-0.153,2.111-0.461,2.111-2.074s-1.441-2.304-3.083-2.304c-3.619,0-3.72,3.072-5.663,3.072c-1.24,0-2.078-0.999-2.078-2.151
			c0-2.228,2.748-5.069,7.774-5.069c4.691,0,7.941,1.729,7.941,5.761v9.41H44.267z M39.375,132.306
			c-0.536,0.576-1.542,0.769-2.111,0.884l-1.776,0.307c-2.044,0.346-3.15,1.076-3.15,2.766c0,1.268,1.039,2.305,2.714,2.305
			c2.681,0,4.323-1.997,4.323-4.071V132.306z"/>
		<path d="M49.764,125.355h-0.838c-1.374,0-1.943-0.614-1.943-1.844c0-1.229,0.57-1.844,1.943-1.844h0.838v-3.418
			c0-1.844,0.972-2.804,2.446-2.804s2.446,0.96,2.446,2.804v3.418h1.475c1.441,0,2.211,0.5,2.211,1.844
			c0,1.345-0.771,1.844-2.211,1.844h-1.475v11.215c0,0.845,0.402,1.306,1.273,1.306h0.704c1.072,0,1.709,0.691,1.709,1.882
			c0,1.613-1.206,2.496-3.552,2.496c-3.552,0-5.026-1.689-5.026-4.992C49.764,137.262,49.764,125.355,49.764,125.355z"/>
		<path d="M63.604,113.449c1.407,0,2.546,1.306,2.546,2.919s-1.139,2.919-2.546,2.919s-2.547-1.306-2.547-2.919
			S62.196,113.449,63.604,113.449z M61.157,123.972c0-1.498,0.536-2.804,2.446-2.804s2.446,1.306,2.446,2.804v15.478
			c0,1.498-0.536,2.804-2.446,2.804s-2.446-1.306-2.446-2.804C61.157,139.45,61.157,123.972,61.157,123.972z"/>
		<path d="M78.515,121.169c5.897,0,9.047,4.608,9.047,10.523c0,5.607-2.379,10.562-9.047,10.562s-9.047-4.954-9.047-10.562
			C69.468,125.777,72.618,121.169,78.515,121.169z M78.515,138.106c2.916,0,4.155-2.996,4.155-6.414
			c0-3.648-1.307-6.375-4.155-6.375s-4.155,2.727-4.155,6.375C74.36,135.11,75.6,138.106,78.515,138.106z"/>
		<path d="M90.714,123.972c0-1.689,0.67-2.804,2.212-2.804c1.541,0,2.211,1.114,2.211,2.804v0.729h0.067
			c1.374-2.073,3.15-3.533,5.931-3.533c2.949,0,6.166,1.69,6.166,7.374v10.907c0,1.498-0.536,2.804-2.446,2.804
			s-2.446-1.306-2.446-2.804v-9.793c0-2.267-0.972-3.88-3.083-3.88c-1.709,0-3.719,1.613-3.719,4.417v9.256
			c0,1.498-0.536,2.804-2.446,2.804s-2.446-1.306-2.446-2.804L90.714,123.972L90.714,123.972z"/>
		<path d="M127.44,136.34c0,2.343,0.503,2.88,0.503,3.764c0,1.268-1.039,2.15-2.212,2.15c-2.111,0-2.814-1.536-2.881-3.265
			c-1.91,2.42-4.122,3.265-6.702,3.265c-2.781,0-5.529-2.188-5.529-5.723c0-4.646,3.083-5.952,6.835-6.452l2.982-0.384
			c1.173-0.153,2.111-0.461,2.111-2.074s-1.441-2.304-3.083-2.304c-3.619,0-3.72,3.072-5.663,3.072c-1.24,0-2.078-0.999-2.078-2.151
			c0-2.228,2.748-5.069,7.774-5.069c4.691,0,7.941,1.729,7.941,5.761v9.41H127.44z M122.548,132.306
			c-0.536,0.576-1.542,0.769-2.111,0.884l-1.776,0.307c-2.044,0.346-3.15,1.076-3.15,2.766c0,1.268,1.039,2.305,2.714,2.305
			c2.681,0,4.323-1.997,4.323-4.071C122.548,134.497,122.548,132.306,122.548,132.306z"/>
		<path d="M131.932,116.406c0-1.843,0.972-2.804,2.446-2.804s2.446,0.961,2.446,2.804v23.044c0,1.844-0.972,2.804-2.446,2.804
			c-1.475,0-2.446-0.96-2.446-2.804V116.406z"/>
		<path d="M151.838,116.752c0-1.882,1.072-3.149,2.748-3.149s2.748,1.268,2.748,3.149v19.703h9.181c1.575,0,2.848,0.922,2.848,2.649
			c0,1.729-1.273,2.65-2.848,2.65h-11.459c-1.944,0-3.217-0.884-3.217-3.687v-21.315H151.838z"/>
		<path d="M174.424,113.449c1.407,0,2.546,1.306,2.546,2.919s-1.139,2.919-2.546,2.919s-2.547-1.306-2.547-2.919
			S173.017,113.449,174.424,113.449z M171.978,123.972c0-1.498,0.536-2.804,2.446-2.804s2.446,1.306,2.446,2.804v15.478
			c0,1.498-0.536,2.804-2.446,2.804s-2.446-1.306-2.446-2.804V123.972z"/>
		<path d="M181.026,123.972c0-1.689,0.872-2.804,2.312-2.804c1.441,0,2.312,1.114,2.312,2.804v0.729h0.067
			c1.273-2.228,3.417-3.533,5.897-3.533c1.675,0,3.786,0.884,4.691,3.533c1.374-2.188,3.116-3.533,5.764-3.533
			c3.384,0,6.099,1.767,6.099,6.798v11.483c0,1.498-0.536,2.804-2.446,2.804s-2.446-1.306-2.446-2.804v-10.062
			c0-1.997-0.771-3.61-2.681-3.61c-1.876,0-3.552,1.729-3.552,4.341v9.332c0,1.498-0.536,2.804-2.446,2.804
			s-2.446-1.306-2.446-2.804v-10.062c0-1.997-0.771-3.61-2.681-3.61c-1.876,0-3.552,1.729-3.552,4.341v9.332
			c0,1.498-0.536,2.804-2.446,2.804s-2.446-1.306-2.446-2.804V123.972z"/>
		<path d="M220.367,121.169c5.897,0,9.047,4.608,9.047,10.523c0,5.607-2.379,10.562-9.047,10.562s-9.047-4.954-9.047-10.562
			C211.319,125.777,214.469,121.169,220.367,121.169z M220.367,138.106c2.916,0,4.155-2.996,4.155-6.414
			c0-3.648-1.307-6.375-4.155-6.375s-4.155,2.727-4.155,6.375C216.212,135.11,217.452,138.106,220.367,138.106z"/>
		<path d="M249.152,139.45c0,1.69-0.67,2.804-2.212,2.804c-1.541,0-2.211-1.113-2.211-2.804v-0.729h-0.067
			c-1.374,2.074-3.15,3.533-5.931,3.533c-2.949,0-6.166-1.689-6.166-7.374v-10.907c0-1.498,0.536-2.804,2.446-2.804
			s2.446,1.306,2.446,2.804v9.794c0,2.266,0.972,3.879,3.083,3.879c1.709,0,3.719-1.613,3.719-4.417v-9.256
			c0-1.498,0.536-2.804,2.446-2.804s2.446,1.306,2.446,2.804v15.477H249.152z"/>
		<path d="M259.608,121.169c3.72,0,7.473,1.69,7.473,4.264c0,1.306-0.771,2.458-2.044,2.458c-1.91,0-1.978-2.573-5.06-2.573
			c-1.709,0-2.815,0.537-2.815,1.728c0,1.306,1.106,1.613,2.614,1.997l2.044,0.538c2.78,0.729,6.098,2.074,6.098,5.991
			c0,4.57-3.854,6.683-7.539,6.683c-4.423,0-8.109-2.266-8.109-5.031c0-1.229,0.603-2.343,1.977-2.343
			c2.111,0,2.312,3.457,5.931,3.457c1.742,0,2.849-0.884,2.849-2.036c0-1.421-1.072-1.651-2.815-2.15l-2.881-0.807
			c-2.848-0.807-5.06-2.15-5.06-5.914C252.27,122.859,256.224,121.169,259.608,121.169z"/>
		<path d="M273.75,113.449c1.408,0,2.547,1.306,2.547,2.919s-1.139,2.919-2.547,2.919c-1.407,0-2.546-1.306-2.546-2.919
			S272.343,113.449,273.75,113.449z M271.305,123.972c0-1.498,0.536-2.804,2.445-2.804c1.91,0,2.446,1.306,2.446,2.804v15.478
			c0,1.498-0.536,2.804-2.446,2.804c-1.909,0-2.445-1.306-2.445-2.804V123.972z"/>
		<path d="M280.352,123.972c0-1.689,0.67-2.804,2.212-2.804c1.541,0,2.211,1.114,2.211,2.804v0.729h0.067
			c1.374-2.073,3.149-3.533,5.931-3.533c2.949,0,6.166,1.69,6.166,7.374v10.907c0,1.498-0.536,2.804-2.446,2.804
			s-2.446-1.306-2.446-2.804v-9.793c0-2.267-0.972-3.88-3.083-3.88c-1.709,0-3.719,1.613-3.719,4.417v9.256
			c0,1.498-0.536,2.804-2.446,2.804s-2.446-1.306-2.446-2.804L280.352,123.972L280.352,123.972z"/>
		<path d="M304.982,132.767c0,2.957,1.676,5.108,4.523,5.108c3.686,0,3.686-2.766,5.663-2.766c1.173,0,2.011,1.152,2.011,2.189
			c0,3.38-4.725,4.954-7.674,4.954c-6.836,0-9.416-5.3-9.416-10.178c0-6.528,3.451-10.907,9.248-10.907
			c5.63,0,8.847,4.57,8.847,9.18c0,1.92-0.503,2.419-2.145,2.419h-11.057V132.767z M313.561,129.542
			c-0.269-2.573-1.943-4.455-4.122-4.455c-2.445,0-3.92,1.728-4.456,4.455H313.561z"/>
		<path d="M337.588,115.523c0.469-1.421,1.341-1.921,2.681-1.921h1.307c1.24,0,2.346,0.346,2.949,2.305l6.635,21.162
			c0.2,0.614,0.536,1.729,0.536,2.42c0,1.536-1.173,2.765-2.58,2.765c-1.207,0-2.078-0.499-2.48-1.729l-1.407-4.608h-8.846
			l-1.441,4.608c-0.368,1.229-1.139,1.729-2.445,1.729c-1.509,0-2.547-1.075-2.547-2.765c0-0.691,0.335-1.806,0.536-2.42
			L337.588,115.523z M340.905,120.439h-0.067l-3.25,11.1h6.434L340.905,120.439z"/>
		<path d="M360.509,121.169c3.72,0,7.473,1.69,7.473,4.264c0,1.306-0.771,2.458-2.044,2.458c-1.91,0-1.977-2.573-5.06-2.573
			c-1.709,0-2.814,0.537-2.814,1.728c0,1.306,1.105,1.613,2.613,1.997l2.044,0.538c2.781,0.729,6.099,2.074,6.099,5.991
			c0,4.57-3.854,6.683-7.539,6.683c-4.424,0-8.109-2.266-8.109-5.031c0-1.229,0.604-2.343,1.977-2.343
			c2.111,0,2.312,3.457,5.932,3.457c1.742,0,2.848-0.884,2.848-2.036c0-1.421-1.072-1.651-2.814-2.15l-2.882-0.807
			c-2.848-0.807-5.06-2.15-5.06-5.914C353.171,122.859,357.125,121.169,360.509,121.169z"/>
		<path d="M378.504,121.169c3.72,0,7.473,1.69,7.473,4.264c0,1.306-0.771,2.458-2.044,2.458c-1.91,0-1.977-2.573-5.06-2.573
			c-1.709,0-2.814,0.537-2.814,1.728c0,1.306,1.105,1.613,2.613,1.997l2.044,0.538c2.781,0.729,6.099,2.074,6.099,5.991
			c0,4.57-3.854,6.683-7.539,6.683c-4.424,0-8.109-2.266-8.109-5.031c0-1.229,0.604-2.343,1.977-2.343
			c2.111,0,2.312,3.457,5.932,3.457c1.742,0,2.848-0.884,2.848-2.036c0-1.421-1.072-1.651-2.814-2.15l-2.882-0.807
			c-2.848-0.807-5.06-2.15-5.06-5.914C371.166,122.859,375.12,121.169,378.504,121.169z"/>
		<path d="M398.242,121.169c5.897,0,9.047,4.608,9.047,10.523c0,5.607-2.379,10.562-9.047,10.562c-6.669,0-9.048-4.954-9.048-10.562
			C389.194,125.777,392.345,121.169,398.242,121.169z M398.242,138.106c2.915,0,4.154-2.996,4.154-6.414
			c0-3.648-1.307-6.375-4.154-6.375c-2.849,0-4.155,2.727-4.155,6.375C394.087,135.11,395.326,138.106,398.242,138.106z"/>
		<path d="M418.684,121.169c4.088,0,7.138,2.65,7.138,5.262c0,1.613-1.039,2.42-2.279,2.42c-2.312,0-1.474-3.303-4.992-3.303
			c-1.91,0-4.155,1.497-4.155,6.567c0,3.494,1.44,5.761,4.121,5.761c3.418,0,2.681-3.61,5.262-3.61c1.239,0,2.044,1.037,2.044,2.15
			c0,2.458-2.413,5.838-7.439,5.838c-6.031,0-8.88-4.263-8.88-10.139C409.502,125.663,412.686,121.169,418.684,121.169z"/>
		<path d="M431.149,113.449c1.408,0,2.547,1.306,2.547,2.919s-1.139,2.919-2.547,2.919c-1.407,0-2.546-1.306-2.546-2.919
			S429.742,113.449,431.149,113.449z M428.704,123.972c0-1.498,0.536-2.804,2.445-2.804c1.91,0,2.446,1.306,2.446,2.804v15.478
			c0,1.498-0.536,2.804-2.446,2.804c-1.909,0-2.445-1.306-2.445-2.804V123.972z"/>
		<path d="M454.004,136.34c0,2.343,0.502,2.88,0.502,3.764c0,1.268-1.038,2.15-2.211,2.15c-2.111,0-2.814-1.536-2.882-3.265
			c-1.91,2.42-4.122,3.265-6.702,3.265c-2.781,0-5.528-2.188-5.528-5.723c0-4.646,3.083-5.952,6.836-6.452l2.981-0.384
			c1.173-0.153,2.111-0.461,2.111-2.074s-1.44-2.304-3.083-2.304c-3.618,0-3.719,3.072-5.663,3.072
			c-1.239,0-2.077-0.999-2.077-2.151c0-2.228,2.748-5.069,7.774-5.069c4.69,0,7.941,1.729,7.941,5.761L454.004,136.34
			L454.004,136.34z M449.111,132.306c-0.536,0.576-1.541,0.769-2.111,0.884l-1.775,0.307c-2.044,0.346-3.15,1.076-3.15,2.766
			c0,1.268,1.039,2.305,2.715,2.305c2.681,0,4.322-1.997,4.322-4.071v-2.191H449.111z"/>
		<path d="M459.5,125.355h-0.838c-1.374,0-1.943-0.614-1.943-1.844c0-1.229,0.569-1.844,1.943-1.844h0.838v-3.418
			c0-1.844,0.972-2.804,2.446-2.804s2.446,0.96,2.446,2.804v3.418h1.474c1.441,0,2.212,0.5,2.212,1.844
			c0,1.345-0.771,1.844-2.212,1.844h-1.474v11.215c0,0.845,0.401,1.306,1.273,1.306h0.703c1.072,0,1.709,0.691,1.709,1.882
			c0,1.613-1.206,2.496-3.552,2.496c-3.552,0-5.026-1.689-5.026-4.992L459.5,125.355L459.5,125.355z"/>
		<path d="M473.34,113.449c1.408,0,2.547,1.306,2.547,2.919s-1.139,2.919-2.547,2.919c-1.407,0-2.546-1.306-2.546-2.919
			S471.933,113.449,473.34,113.449z M470.895,123.972c0-1.498,0.536-2.804,2.445-2.804c1.91,0,2.446,1.306,2.446,2.804v15.478
			c0,1.498-0.536,2.804-2.446,2.804c-1.909,0-2.445-1.306-2.445-2.804V123.972z"/>
		<path d="M488.252,121.169c5.897,0,9.047,4.608,9.047,10.523c0,5.607-2.379,10.562-9.047,10.562c-6.669,0-9.048-4.954-9.048-10.562
			C479.204,125.777,482.354,121.169,488.252,121.169z M488.252,138.106c2.915,0,4.154-2.996,4.154-6.414
			c0-3.648-1.307-6.375-4.154-6.375c-2.849,0-4.155,2.727-4.155,6.375C484.097,135.11,485.336,138.106,488.252,138.106z"/>
		<path d="M500.45,123.972c0-1.689,0.67-2.804,2.212-2.804c1.541,0,2.211,1.114,2.211,2.804v0.729h0.067
			c1.374-2.073,3.149-3.533,5.931-3.533c2.949,0,6.166,1.69,6.166,7.374v10.907c0,1.498-0.536,2.804-2.446,2.804
			s-2.446-1.306-2.446-2.804v-9.793c0-2.267-0.972-3.88-3.083-3.88c-1.708,0-3.719,1.613-3.719,4.417v9.256
			c0,1.498-0.536,2.804-2.446,2.804s-2.446-1.306-2.446-2.804L500.45,123.972L500.45,123.972z"/>
	</g>
	<path d="M218.081,73.395c0-9.081,0-70.8,0-70.8h-47.884v77.314c0,0-2.854,27.76,42.549,27.76s101.961,0,101.961,0V85.098h-91.876
		C222.832,85.098,218.081,85.357,218.081,73.395z"/>
	<g>
		<path fill="#00698E" d="M436.707,65.207c-4.631,0.376-9.203,0.58-13.64,0.58c-34.07,0-90.745-28.501-165.438-28.501
			c-66.504,0-147.747,26.208-147.748,26.208c6.122-1.975,14.105-1.63,20.521-2.342c6.172-0.686,12.346-1.353,18.523-1.995
			c9.738-1.011,19.482-1.961,29.238-2.78c31.595-2.653,64.118-3.655,95.643-0.148c13.44,1.495,26.618,5.138,39.528,9.045
			c19.024,5.757,37.713,12.555,56.708,18.401c26.513,8.161,52.172,14.12,79.165,4.3c0.748-0.272,1.49-0.576,2.236-0.863
			L436.707,65.207z"/>
		<path fill="#00698E" d="M480.57,56.994l6.908,10.143c10.54-7.706,20.25-16.546,28.628-25.92
			C508.372,47.018,495.5,52.611,480.57,56.994z"/>
	</g>
</g>
<rect id="rectPath" fill="none" width="519" height="149.974"/>
</svg>
