<svg xmlns="http://www.w3.org/2000/svg" viewBox="0 0 100 100"><defs><style>.cls-1{fill:#f18e20;}.cls-2{fill:none;}</style></defs><title>sightseeing</title><g id="Layer_2" data-name="Layer 2"><g id="Layer_1-2" data-name="Layer 1"><circle class="cls-1" cx="57.26" cy="51.85" r="11"/><path class="cls-1" d="M75.56,33.58H69.17V32.34a3.25,3.25,0,0,0-3.24-3.24H48.58a3.25,3.25,0,0,0-3.24,3.24v1.24H24.44a6.06,6.06,0,0,0-6.05,6.05V64.85a6.06,6.06,0,0,0,6.05,6.05H75.56a6.06,6.06,0,0,0,6-6.05V39.63A6.06,6.06,0,0,0,75.56,33.58ZM32.15,44.07H25.71a3.35,3.35,0,1,1,0-6.69h6.44a3.35,3.35,0,0,1,0,6.69Zm25.1,23A15.35,15.35,0,1,1,72.6,51.69,15.34,15.34,0,0,1,57.25,67Z"/><rect class="cls-2" width="100" height="100"/></g></g></svg>